<mxfile host="app.diagrams.net" modified="2023-11-23T13:47:31.836Z" agent="Mozilla/5.0 (Windows NT 10.0; Win64; x64) AppleWebKit/537.36 (KHTML, like Gecko) Chrome/120.0.0.0 Safari/537.36 Edg/120.0.0.0" etag="7Qh1Ecym8BLkuTNPPUT6" version="22.1.3" type="github" pages="2">
  <diagram id="C5RBs43oDa-KdzZeNtuy" name="Page-1">
    <mxGraphModel dx="2267" dy="1887" grid="1" gridSize="10" guides="1" tooltips="1" connect="1" arrows="1" fold="1" page="1" pageScale="1" pageWidth="827" pageHeight="1169" math="0" shadow="0">
      <root>
        <mxCell id="WIyWlLk6GJQsqaUBKTNV-0" />
        <mxCell id="WIyWlLk6GJQsqaUBKTNV-1" parent="WIyWlLk6GJQsqaUBKTNV-0" />
        <mxCell id="1B1cMPSORAF4av0CPrEg-1" value="" style="edgeStyle=orthogonalEdgeStyle;rounded=0;orthogonalLoop=1;jettySize=auto;html=1;" parent="WIyWlLk6GJQsqaUBKTNV-1" source="WIyWlLk6GJQsqaUBKTNV-3" target="1B1cMPSORAF4av0CPrEg-0" edge="1">
          <mxGeometry relative="1" as="geometry">
            <Array as="points">
              <mxPoint x="310" y="2250" />
              <mxPoint x="310" y="1220" />
            </Array>
          </mxGeometry>
        </mxCell>
        <mxCell id="1B1cMPSORAF4av0CPrEg-3" value="" style="edgeStyle=orthogonalEdgeStyle;rounded=0;orthogonalLoop=1;jettySize=auto;html=1;" parent="WIyWlLk6GJQsqaUBKTNV-1" source="WIyWlLk6GJQsqaUBKTNV-3" target="1B1cMPSORAF4av0CPrEg-2" edge="1">
          <mxGeometry relative="1" as="geometry">
            <Array as="points">
              <mxPoint x="310" y="2250" />
              <mxPoint x="310" y="2830" />
            </Array>
          </mxGeometry>
        </mxCell>
        <mxCell id="SXd2BRhRPIDq4cuI7gyY-1" style="edgeStyle=orthogonalEdgeStyle;rounded=0;orthogonalLoop=1;jettySize=auto;html=1;exitX=1;exitY=0.5;exitDx=0;exitDy=0;entryX=0;entryY=0.5;entryDx=0;entryDy=0;" parent="WIyWlLk6GJQsqaUBKTNV-1" source="WIyWlLk6GJQsqaUBKTNV-3" target="SXd2BRhRPIDq4cuI7gyY-0" edge="1">
          <mxGeometry relative="1" as="geometry">
            <Array as="points">
              <mxPoint x="310" y="2250" />
              <mxPoint x="310" y="1640" />
            </Array>
          </mxGeometry>
        </mxCell>
        <mxCell id="SXd2BRhRPIDq4cuI7gyY-3" style="edgeStyle=orthogonalEdgeStyle;rounded=0;orthogonalLoop=1;jettySize=auto;html=1;exitX=1;exitY=0.5;exitDx=0;exitDy=0;entryX=0;entryY=0.5;entryDx=0;entryDy=0;" parent="WIyWlLk6GJQsqaUBKTNV-1" source="WIyWlLk6GJQsqaUBKTNV-3" target="SXd2BRhRPIDq4cuI7gyY-2" edge="1">
          <mxGeometry relative="1" as="geometry">
            <Array as="points">
              <mxPoint x="310" y="2250" />
              <mxPoint x="310" y="2040" />
            </Array>
          </mxGeometry>
        </mxCell>
        <mxCell id="SXd2BRhRPIDq4cuI7gyY-6" style="edgeStyle=orthogonalEdgeStyle;rounded=0;orthogonalLoop=1;jettySize=auto;html=1;exitX=1;exitY=0.5;exitDx=0;exitDy=0;entryX=0;entryY=0.5;entryDx=0;entryDy=0;" parent="WIyWlLk6GJQsqaUBKTNV-1" source="WIyWlLk6GJQsqaUBKTNV-3" target="SXd2BRhRPIDq4cuI7gyY-4" edge="1">
          <mxGeometry relative="1" as="geometry">
            <Array as="points">
              <mxPoint x="310" y="2250" />
              <mxPoint x="310" y="2953" />
            </Array>
          </mxGeometry>
        </mxCell>
        <mxCell id="SXd2BRhRPIDq4cuI7gyY-7" style="edgeStyle=orthogonalEdgeStyle;rounded=0;orthogonalLoop=1;jettySize=auto;html=1;exitX=1;exitY=0.5;exitDx=0;exitDy=0;entryX=0;entryY=0.5;entryDx=0;entryDy=0;" parent="WIyWlLk6GJQsqaUBKTNV-1" source="WIyWlLk6GJQsqaUBKTNV-3" target="SXd2BRhRPIDq4cuI7gyY-5" edge="1">
          <mxGeometry relative="1" as="geometry">
            <Array as="points">
              <mxPoint x="310" y="2250" />
              <mxPoint x="310" y="3100" />
            </Array>
          </mxGeometry>
        </mxCell>
        <mxCell id="SXd2BRhRPIDq4cuI7gyY-9" style="edgeStyle=orthogonalEdgeStyle;rounded=0;orthogonalLoop=1;jettySize=auto;html=1;exitX=1;exitY=0.5;exitDx=0;exitDy=0;entryX=0;entryY=0.5;entryDx=0;entryDy=0;" parent="WIyWlLk6GJQsqaUBKTNV-1" source="WIyWlLk6GJQsqaUBKTNV-3" target="SXd2BRhRPIDq4cuI7gyY-8" edge="1">
          <mxGeometry relative="1" as="geometry">
            <Array as="points">
              <mxPoint x="310" y="2250" />
              <mxPoint x="310" y="3240" />
            </Array>
          </mxGeometry>
        </mxCell>
        <mxCell id="SXd2BRhRPIDq4cuI7gyY-11" style="edgeStyle=orthogonalEdgeStyle;rounded=0;orthogonalLoop=1;jettySize=auto;html=1;exitX=1;exitY=0.5;exitDx=0;exitDy=0;entryX=0;entryY=0.5;entryDx=0;entryDy=0;" parent="WIyWlLk6GJQsqaUBKTNV-1" source="WIyWlLk6GJQsqaUBKTNV-3" target="SXd2BRhRPIDq4cuI7gyY-10" edge="1">
          <mxGeometry relative="1" as="geometry">
            <Array as="points">
              <mxPoint x="310" y="2250" />
              <mxPoint x="310" y="3370" />
            </Array>
          </mxGeometry>
        </mxCell>
        <mxCell id="WIyWlLk6GJQsqaUBKTNV-3" value="NIMROD" style="rounded=1;whiteSpace=wrap;html=1;fontSize=12;glass=0;strokeWidth=1;shadow=0;" parent="WIyWlLk6GJQsqaUBKTNV-1" vertex="1">
          <mxGeometry x="130" y="2230" width="120" height="40" as="geometry" />
        </mxCell>
        <mxCell id="WIyWlLk6GJQsqaUBKTNV-4" value="Yes" style="rounded=0;html=1;jettySize=auto;orthogonalLoop=1;fontSize=11;endArrow=block;endFill=0;endSize=8;strokeWidth=1;shadow=0;labelBackgroundColor=none;edgeStyle=orthogonalEdgeStyle;" parent="WIyWlLk6GJQsqaUBKTNV-1" edge="1">
          <mxGeometry y="20" relative="1" as="geometry">
            <mxPoint as="offset" />
            <mxPoint x="220" y="250" as="sourcePoint" />
          </mxGeometry>
        </mxCell>
        <mxCell id="WIyWlLk6GJQsqaUBKTNV-5" value="No" style="edgeStyle=orthogonalEdgeStyle;rounded=0;html=1;jettySize=auto;orthogonalLoop=1;fontSize=11;endArrow=block;endFill=0;endSize=8;strokeWidth=1;shadow=0;labelBackgroundColor=none;" parent="WIyWlLk6GJQsqaUBKTNV-1" edge="1">
          <mxGeometry y="10" relative="1" as="geometry">
            <mxPoint as="offset" />
            <mxPoint x="270" y="210" as="sourcePoint" />
            <Array as="points">
              <mxPoint x="320" y="210" />
            </Array>
          </mxGeometry>
        </mxCell>
        <mxCell id="WIyWlLk6GJQsqaUBKTNV-8" value="No" style="rounded=0;html=1;jettySize=auto;orthogonalLoop=1;fontSize=11;endArrow=block;endFill=0;endSize=8;strokeWidth=1;shadow=0;labelBackgroundColor=none;edgeStyle=orthogonalEdgeStyle;" parent="WIyWlLk6GJQsqaUBKTNV-1" edge="1">
          <mxGeometry x="0.3333" y="20" relative="1" as="geometry">
            <mxPoint as="offset" />
            <mxPoint x="220" y="370" as="sourcePoint" />
          </mxGeometry>
        </mxCell>
        <mxCell id="WIyWlLk6GJQsqaUBKTNV-9" value="Yes" style="edgeStyle=orthogonalEdgeStyle;rounded=0;html=1;jettySize=auto;orthogonalLoop=1;fontSize=11;endArrow=block;endFill=0;endSize=8;strokeWidth=1;shadow=0;labelBackgroundColor=none;" parent="WIyWlLk6GJQsqaUBKTNV-1" edge="1">
          <mxGeometry y="10" relative="1" as="geometry">
            <mxPoint as="offset" />
            <mxPoint x="270" y="330" as="sourcePoint" />
          </mxGeometry>
        </mxCell>
        <mxCell id="1B1cMPSORAF4av0CPrEg-70" style="edgeStyle=orthogonalEdgeStyle;rounded=0;orthogonalLoop=1;jettySize=auto;html=1;exitX=1;exitY=0.5;exitDx=0;exitDy=0;entryX=0;entryY=0.5;entryDx=0;entryDy=0;" parent="WIyWlLk6GJQsqaUBKTNV-1" source="1B1cMPSORAF4av0CPrEg-0" target="1B1cMPSORAF4av0CPrEg-38" edge="1">
          <mxGeometry relative="1" as="geometry">
            <Array as="points">
              <mxPoint x="520" y="1220" />
              <mxPoint x="520" y="1110" />
            </Array>
          </mxGeometry>
        </mxCell>
        <mxCell id="1B1cMPSORAF4av0CPrEg-71" style="edgeStyle=orthogonalEdgeStyle;rounded=0;orthogonalLoop=1;jettySize=auto;html=1;exitX=1;exitY=0.5;exitDx=0;exitDy=0;entryX=0;entryY=0.5;entryDx=0;entryDy=0;" parent="WIyWlLk6GJQsqaUBKTNV-1" source="1B1cMPSORAF4av0CPrEg-0" target="1B1cMPSORAF4av0CPrEg-36" edge="1">
          <mxGeometry relative="1" as="geometry">
            <Array as="points">
              <mxPoint x="520" y="1220" />
              <mxPoint x="520" y="1180" />
            </Array>
          </mxGeometry>
        </mxCell>
        <mxCell id="1B1cMPSORAF4av0CPrEg-72" style="edgeStyle=orthogonalEdgeStyle;rounded=0;orthogonalLoop=1;jettySize=auto;html=1;exitX=1;exitY=0.5;exitDx=0;exitDy=0;entryX=0;entryY=0.5;entryDx=0;entryDy=0;" parent="WIyWlLk6GJQsqaUBKTNV-1" source="1B1cMPSORAF4av0CPrEg-0" target="1B1cMPSORAF4av0CPrEg-40" edge="1">
          <mxGeometry relative="1" as="geometry">
            <Array as="points">
              <mxPoint x="520" y="1220" />
              <mxPoint x="520" y="1260" />
            </Array>
          </mxGeometry>
        </mxCell>
        <mxCell id="1B1cMPSORAF4av0CPrEg-73" style="edgeStyle=orthogonalEdgeStyle;rounded=0;orthogonalLoop=1;jettySize=auto;html=1;exitX=1;exitY=0.5;exitDx=0;exitDy=0;entryX=0;entryY=0.5;entryDx=0;entryDy=0;" parent="WIyWlLk6GJQsqaUBKTNV-1" source="1B1cMPSORAF4av0CPrEg-0" target="1B1cMPSORAF4av0CPrEg-48" edge="1">
          <mxGeometry relative="1" as="geometry">
            <Array as="points">
              <mxPoint x="520" y="1220" />
              <mxPoint x="520" y="1340" />
            </Array>
          </mxGeometry>
        </mxCell>
        <mxCell id="1B1cMPSORAF4av0CPrEg-74" style="edgeStyle=orthogonalEdgeStyle;rounded=0;orthogonalLoop=1;jettySize=auto;html=1;exitX=1;exitY=0.5;exitDx=0;exitDy=0;entryX=0;entryY=0.5;entryDx=0;entryDy=0;" parent="WIyWlLk6GJQsqaUBKTNV-1" source="1B1cMPSORAF4av0CPrEg-0" target="1B1cMPSORAF4av0CPrEg-50" edge="1">
          <mxGeometry relative="1" as="geometry">
            <Array as="points">
              <mxPoint x="520" y="1220" />
              <mxPoint x="520" y="1420" />
            </Array>
          </mxGeometry>
        </mxCell>
        <mxCell id="1B1cMPSORAF4av0CPrEg-75" style="edgeStyle=orthogonalEdgeStyle;rounded=0;orthogonalLoop=1;jettySize=auto;html=1;exitX=1;exitY=0.5;exitDx=0;exitDy=0;entryX=0;entryY=0.5;entryDx=0;entryDy=0;" parent="WIyWlLk6GJQsqaUBKTNV-1" source="1B1cMPSORAF4av0CPrEg-0" target="1B1cMPSORAF4av0CPrEg-52" edge="1">
          <mxGeometry relative="1" as="geometry">
            <Array as="points">
              <mxPoint x="520" y="1220" />
              <mxPoint x="520" y="1500" />
            </Array>
          </mxGeometry>
        </mxCell>
        <mxCell id="1B1cMPSORAF4av0CPrEg-76" style="edgeStyle=orthogonalEdgeStyle;rounded=0;orthogonalLoop=1;jettySize=auto;html=1;exitX=1;exitY=0.5;exitDx=0;exitDy=0;entryX=0;entryY=0.5;entryDx=0;entryDy=0;" parent="WIyWlLk6GJQsqaUBKTNV-1" source="1B1cMPSORAF4av0CPrEg-0" target="1B1cMPSORAF4av0CPrEg-54" edge="1">
          <mxGeometry relative="1" as="geometry">
            <Array as="points">
              <mxPoint x="520" y="1220" />
              <mxPoint x="520" y="1570" />
            </Array>
          </mxGeometry>
        </mxCell>
        <mxCell id="1B1cMPSORAF4av0CPrEg-77" style="edgeStyle=orthogonalEdgeStyle;rounded=0;orthogonalLoop=1;jettySize=auto;html=1;exitX=1;exitY=0.5;exitDx=0;exitDy=0;entryX=0;entryY=0.5;entryDx=0;entryDy=0;" parent="WIyWlLk6GJQsqaUBKTNV-1" source="1B1cMPSORAF4av0CPrEg-0" target="1B1cMPSORAF4av0CPrEg-56" edge="1">
          <mxGeometry relative="1" as="geometry">
            <Array as="points">
              <mxPoint x="520" y="1220" />
              <mxPoint x="520" y="1709" />
            </Array>
          </mxGeometry>
        </mxCell>
        <mxCell id="1B1cMPSORAF4av0CPrEg-78" style="edgeStyle=orthogonalEdgeStyle;rounded=0;orthogonalLoop=1;jettySize=auto;html=1;exitX=1;exitY=0.5;exitDx=0;exitDy=0;entryX=0;entryY=0.5;entryDx=0;entryDy=0;" parent="WIyWlLk6GJQsqaUBKTNV-1" source="1B1cMPSORAF4av0CPrEg-0" target="1B1cMPSORAF4av0CPrEg-46" edge="1">
          <mxGeometry relative="1" as="geometry">
            <Array as="points">
              <mxPoint x="520" y="1220" />
              <mxPoint x="520" y="1776" />
            </Array>
          </mxGeometry>
        </mxCell>
        <mxCell id="1B1cMPSORAF4av0CPrEg-80" style="edgeStyle=orthogonalEdgeStyle;rounded=0;orthogonalLoop=1;jettySize=auto;html=1;exitX=1;exitY=0.5;exitDx=0;exitDy=0;entryX=0;entryY=0.5;entryDx=0;entryDy=0;" parent="WIyWlLk6GJQsqaUBKTNV-1" source="1B1cMPSORAF4av0CPrEg-0" target="1B1cMPSORAF4av0CPrEg-42" edge="1">
          <mxGeometry relative="1" as="geometry">
            <Array as="points">
              <mxPoint x="520" y="1220" />
              <mxPoint x="520" y="1910" />
            </Array>
          </mxGeometry>
        </mxCell>
        <mxCell id="1B1cMPSORAF4av0CPrEg-81" style="edgeStyle=orthogonalEdgeStyle;rounded=0;orthogonalLoop=1;jettySize=auto;html=1;exitX=1;exitY=0.5;exitDx=0;exitDy=0;entryX=0;entryY=0.5;entryDx=0;entryDy=0;" parent="WIyWlLk6GJQsqaUBKTNV-1" source="1B1cMPSORAF4av0CPrEg-0" target="1B1cMPSORAF4av0CPrEg-60" edge="1">
          <mxGeometry relative="1" as="geometry">
            <Array as="points">
              <mxPoint x="520" y="1220" />
              <mxPoint x="520" y="1980" />
            </Array>
          </mxGeometry>
        </mxCell>
        <mxCell id="1B1cMPSORAF4av0CPrEg-82" style="edgeStyle=orthogonalEdgeStyle;rounded=0;orthogonalLoop=1;jettySize=auto;html=1;exitX=1;exitY=0.5;exitDx=0;exitDy=0;entryX=0;entryY=0.5;entryDx=0;entryDy=0;" parent="WIyWlLk6GJQsqaUBKTNV-1" source="1B1cMPSORAF4av0CPrEg-0" target="1B1cMPSORAF4av0CPrEg-61" edge="1">
          <mxGeometry relative="1" as="geometry">
            <Array as="points">
              <mxPoint x="520" y="1220" />
              <mxPoint x="520" y="2050" />
            </Array>
          </mxGeometry>
        </mxCell>
        <mxCell id="1B1cMPSORAF4av0CPrEg-83" style="edgeStyle=orthogonalEdgeStyle;rounded=0;orthogonalLoop=1;jettySize=auto;html=1;exitX=1;exitY=0.5;exitDx=0;exitDy=0;entryX=0;entryY=0.5;entryDx=0;entryDy=0;" parent="WIyWlLk6GJQsqaUBKTNV-1" source="1B1cMPSORAF4av0CPrEg-0" target="1B1cMPSORAF4av0CPrEg-62" edge="1">
          <mxGeometry relative="1" as="geometry">
            <Array as="points">
              <mxPoint x="520" y="1220" />
              <mxPoint x="520" y="2120" />
            </Array>
          </mxGeometry>
        </mxCell>
        <mxCell id="1B1cMPSORAF4av0CPrEg-84" style="edgeStyle=orthogonalEdgeStyle;rounded=0;orthogonalLoop=1;jettySize=auto;html=1;exitX=1;exitY=0.5;exitDx=0;exitDy=0;entryX=0;entryY=0.5;entryDx=0;entryDy=0;" parent="WIyWlLk6GJQsqaUBKTNV-1" source="1B1cMPSORAF4av0CPrEg-0" target="1B1cMPSORAF4av0CPrEg-59" edge="1">
          <mxGeometry relative="1" as="geometry">
            <Array as="points">
              <mxPoint x="520" y="1220" />
              <mxPoint x="520" y="2190" />
            </Array>
          </mxGeometry>
        </mxCell>
        <mxCell id="1B1cMPSORAF4av0CPrEg-85" style="edgeStyle=orthogonalEdgeStyle;rounded=0;orthogonalLoop=1;jettySize=auto;html=1;exitX=1;exitY=0.5;exitDx=0;exitDy=0;entryX=0;entryY=0.5;entryDx=0;entryDy=0;" parent="WIyWlLk6GJQsqaUBKTNV-1" source="1B1cMPSORAF4av0CPrEg-0" target="1B1cMPSORAF4av0CPrEg-65" edge="1">
          <mxGeometry relative="1" as="geometry">
            <Array as="points">
              <mxPoint x="520" y="1220" />
              <mxPoint x="520" y="2270" />
            </Array>
          </mxGeometry>
        </mxCell>
        <mxCell id="1B1cMPSORAF4av0CPrEg-88" style="edgeStyle=orthogonalEdgeStyle;rounded=0;orthogonalLoop=1;jettySize=auto;html=1;exitX=1;exitY=0.5;exitDx=0;exitDy=0;entryX=0;entryY=0.5;entryDx=0;entryDy=0;" parent="WIyWlLk6GJQsqaUBKTNV-1" source="1B1cMPSORAF4av0CPrEg-0" target="1B1cMPSORAF4av0CPrEg-25" edge="1">
          <mxGeometry relative="1" as="geometry">
            <Array as="points">
              <mxPoint x="520" y="1220" />
              <mxPoint x="520" y="730" />
            </Array>
          </mxGeometry>
        </mxCell>
        <mxCell id="6PSck7Jdm3lRho_DC61k-1" style="edgeStyle=orthogonalEdgeStyle;rounded=0;orthogonalLoop=1;jettySize=auto;html=1;exitX=1;exitY=0.5;exitDx=0;exitDy=0;entryX=0;entryY=0.5;entryDx=0;entryDy=0;" parent="WIyWlLk6GJQsqaUBKTNV-1" source="1B1cMPSORAF4av0CPrEg-0" target="1B1cMPSORAF4av0CPrEg-29" edge="1">
          <mxGeometry relative="1" as="geometry">
            <Array as="points">
              <mxPoint x="520" y="1220" />
              <mxPoint x="520" y="590" />
            </Array>
          </mxGeometry>
        </mxCell>
        <mxCell id="6PSck7Jdm3lRho_DC61k-2" style="edgeStyle=orthogonalEdgeStyle;rounded=0;orthogonalLoop=1;jettySize=auto;html=1;exitX=1;exitY=0.5;exitDx=0;exitDy=0;entryX=0;entryY=0.5;entryDx=0;entryDy=0;" parent="WIyWlLk6GJQsqaUBKTNV-1" source="1B1cMPSORAF4av0CPrEg-0" target="1B1cMPSORAF4av0CPrEg-13" edge="1">
          <mxGeometry relative="1" as="geometry">
            <Array as="points">
              <mxPoint x="520" y="1220" />
              <mxPoint x="520" y="340" />
            </Array>
          </mxGeometry>
        </mxCell>
        <mxCell id="6PSck7Jdm3lRho_DC61k-3" style="edgeStyle=orthogonalEdgeStyle;rounded=0;orthogonalLoop=1;jettySize=auto;html=1;exitX=1;exitY=0.5;exitDx=0;exitDy=0;entryX=0;entryY=0.5;entryDx=0;entryDy=0;" parent="WIyWlLk6GJQsqaUBKTNV-1" source="1B1cMPSORAF4av0CPrEg-0" target="1B1cMPSORAF4av0CPrEg-4" edge="1">
          <mxGeometry relative="1" as="geometry">
            <Array as="points">
              <mxPoint x="520" y="1220" />
              <mxPoint x="520" y="40" />
            </Array>
          </mxGeometry>
        </mxCell>
        <mxCell id="6PSck7Jdm3lRho_DC61k-22" style="edgeStyle=orthogonalEdgeStyle;rounded=0;orthogonalLoop=1;jettySize=auto;html=1;exitX=1;exitY=0.5;exitDx=0;exitDy=0;entryX=0;entryY=0.5;entryDx=0;entryDy=0;" parent="WIyWlLk6GJQsqaUBKTNV-1" source="1B1cMPSORAF4av0CPrEg-0" target="1B1cMPSORAF4av0CPrEg-44" edge="1">
          <mxGeometry relative="1" as="geometry">
            <Array as="points">
              <mxPoint x="520" y="1220" />
              <mxPoint x="520" y="1842" />
            </Array>
          </mxGeometry>
        </mxCell>
        <mxCell id="6PSck7Jdm3lRho_DC61k-25" style="edgeStyle=orthogonalEdgeStyle;rounded=0;orthogonalLoop=1;jettySize=auto;html=1;exitX=1;exitY=0.5;exitDx=0;exitDy=0;entryX=0;entryY=0.5;entryDx=0;entryDy=0;" parent="WIyWlLk6GJQsqaUBKTNV-1" source="1B1cMPSORAF4av0CPrEg-0" target="6PSck7Jdm3lRho_DC61k-23" edge="1">
          <mxGeometry relative="1" as="geometry">
            <Array as="points">
              <mxPoint x="520" y="1220" />
              <mxPoint x="520" y="2340" />
            </Array>
          </mxGeometry>
        </mxCell>
        <mxCell id="SXd2BRhRPIDq4cuI7gyY-14" style="edgeStyle=orthogonalEdgeStyle;rounded=0;orthogonalLoop=1;jettySize=auto;html=1;exitX=1;exitY=0.5;exitDx=0;exitDy=0;entryX=1;entryY=0.5;entryDx=0;entryDy=0;" parent="WIyWlLk6GJQsqaUBKTNV-1" source="1B1cMPSORAF4av0CPrEg-0" target="SXd2BRhRPIDq4cuI7gyY-13" edge="1">
          <mxGeometry relative="1" as="geometry">
            <Array as="points">
              <mxPoint x="520" y="1220" />
              <mxPoint x="520" y="-10" />
            </Array>
          </mxGeometry>
        </mxCell>
        <mxCell id="1B1cMPSORAF4av0CPrEg-0" value="&lt;b&gt;init&lt;/b&gt;&lt;br&gt;Initilization" style="whiteSpace=wrap;html=1;rounded=1;glass=0;strokeWidth=1;shadow=0;align=left;" parent="WIyWlLk6GJQsqaUBKTNV-1" vertex="1">
          <mxGeometry x="330" y="1190" width="130" height="60" as="geometry" />
        </mxCell>
        <mxCell id="6PSck7Jdm3lRho_DC61k-5" value="" style="edgeStyle=orthogonalEdgeStyle;rounded=0;orthogonalLoop=1;jettySize=auto;html=1;" parent="WIyWlLk6GJQsqaUBKTNV-1" source="1B1cMPSORAF4av0CPrEg-2" target="6PSck7Jdm3lRho_DC61k-4" edge="1">
          <mxGeometry relative="1" as="geometry" />
        </mxCell>
        <mxCell id="6PSck7Jdm3lRho_DC61k-13" style="edgeStyle=orthogonalEdgeStyle;rounded=0;orthogonalLoop=1;jettySize=auto;html=1;exitX=1;exitY=0.5;exitDx=0;exitDy=0;entryX=0;entryY=0.5;entryDx=0;entryDy=0;" parent="WIyWlLk6GJQsqaUBKTNV-1" source="1B1cMPSORAF4av0CPrEg-2" target="6PSck7Jdm3lRho_DC61k-9" edge="1">
          <mxGeometry relative="1" as="geometry" />
        </mxCell>
        <mxCell id="6PSck7Jdm3lRho_DC61k-14" style="edgeStyle=orthogonalEdgeStyle;rounded=0;orthogonalLoop=1;jettySize=auto;html=1;exitX=1;exitY=0.5;exitDx=0;exitDy=0;entryX=0;entryY=0.5;entryDx=0;entryDy=0;" parent="WIyWlLk6GJQsqaUBKTNV-1" source="1B1cMPSORAF4av0CPrEg-2" target="6PSck7Jdm3lRho_DC61k-10" edge="1">
          <mxGeometry relative="1" as="geometry" />
        </mxCell>
        <mxCell id="6PSck7Jdm3lRho_DC61k-15" style="edgeStyle=orthogonalEdgeStyle;rounded=0;orthogonalLoop=1;jettySize=auto;html=1;exitX=1;exitY=0.5;exitDx=0;exitDy=0;entryX=0;entryY=0.5;entryDx=0;entryDy=0;" parent="WIyWlLk6GJQsqaUBKTNV-1" source="1B1cMPSORAF4av0CPrEg-2" target="6PSck7Jdm3lRho_DC61k-11" edge="1">
          <mxGeometry relative="1" as="geometry" />
        </mxCell>
        <mxCell id="6PSck7Jdm3lRho_DC61k-16" style="edgeStyle=orthogonalEdgeStyle;rounded=0;orthogonalLoop=1;jettySize=auto;html=1;exitX=1;exitY=0.5;exitDx=0;exitDy=0;entryX=0;entryY=0.5;entryDx=0;entryDy=0;" parent="WIyWlLk6GJQsqaUBKTNV-1" source="1B1cMPSORAF4av0CPrEg-2" target="6PSck7Jdm3lRho_DC61k-6" edge="1">
          <mxGeometry relative="1" as="geometry" />
        </mxCell>
        <mxCell id="6PSck7Jdm3lRho_DC61k-17" style="edgeStyle=orthogonalEdgeStyle;rounded=0;orthogonalLoop=1;jettySize=auto;html=1;exitX=1;exitY=0.5;exitDx=0;exitDy=0;entryX=0;entryY=0.5;entryDx=0;entryDy=0;" parent="WIyWlLk6GJQsqaUBKTNV-1" source="1B1cMPSORAF4av0CPrEg-2" target="6PSck7Jdm3lRho_DC61k-7" edge="1">
          <mxGeometry relative="1" as="geometry" />
        </mxCell>
        <mxCell id="6PSck7Jdm3lRho_DC61k-18" style="edgeStyle=orthogonalEdgeStyle;rounded=0;orthogonalLoop=1;jettySize=auto;html=1;exitX=1;exitY=0.5;exitDx=0;exitDy=0;entryX=0;entryY=0.5;entryDx=0;entryDy=0;" parent="WIyWlLk6GJQsqaUBKTNV-1" source="1B1cMPSORAF4av0CPrEg-2" target="6PSck7Jdm3lRho_DC61k-8" edge="1">
          <mxGeometry relative="1" as="geometry" />
        </mxCell>
        <mxCell id="1B1cMPSORAF4av0CPrEg-2" value="&lt;b&gt;adv_time&lt;/b&gt;&lt;br&gt;Time evolution" style="whiteSpace=wrap;html=1;rounded=1;glass=0;strokeWidth=1;shadow=0;align=left;" parent="WIyWlLk6GJQsqaUBKTNV-1" vertex="1">
          <mxGeometry x="360" y="2800" width="120" height="60" as="geometry" />
        </mxCell>
        <mxCell id="1B1cMPSORAF4av0CPrEg-4" value="&lt;b&gt;nimlib/local.F90:timer&lt;/b&gt;&lt;br&gt;start timer" style="whiteSpace=wrap;html=1;rounded=1;glass=0;strokeWidth=1;shadow=0;align=left;" parent="WIyWlLk6GJQsqaUBKTNV-1" vertex="1">
          <mxGeometry x="550" y="10" width="220" height="60" as="geometry" />
        </mxCell>
        <mxCell id="1B1cMPSORAF4av0CPrEg-8" value="" style="edgeStyle=orthogonalEdgeStyle;rounded=0;orthogonalLoop=1;jettySize=auto;html=1;exitX=1;exitY=0.5;exitDx=0;exitDy=0;" parent="WIyWlLk6GJQsqaUBKTNV-1" source="1B1cMPSORAF4av0CPrEg-0" target="1B1cMPSORAF4av0CPrEg-9" edge="1">
          <mxGeometry relative="1" as="geometry">
            <mxPoint x="500" y="230" as="sourcePoint" />
            <Array as="points">
              <mxPoint x="520" y="1220" />
              <mxPoint x="520" y="130" />
            </Array>
          </mxGeometry>
        </mxCell>
        <mxCell id="1B1cMPSORAF4av0CPrEg-9" value="&#xa;&lt;b style=&quot;border-color: var(--border-color); color: rgb(0, 0, 0); font-family: Helvetica; font-size: 12px; font-style: normal; font-variant-ligatures: normal; font-variant-caps: normal; letter-spacing: normal; orphans: 2; text-align: center; text-indent: 0px; text-transform: none; widows: 2; word-spacing: 0px; -webkit-text-stroke-width: 0px; background-color: rgb(251, 251, 251); text-decoration-thickness: initial; text-decoration-style: initial; text-decoration-color: initial;&quot;&gt;nimcore/nim_version.in.F90:nim_version&lt;/b&gt;&#xa;&#xa;" style="whiteSpace=wrap;html=1;rounded=1;glass=0;strokeWidth=1;shadow=0;" parent="WIyWlLk6GJQsqaUBKTNV-1" vertex="1">
          <mxGeometry x="550" y="90" width="220" height="60" as="geometry" />
        </mxCell>
        <mxCell id="1B1cMPSORAF4av0CPrEg-10" value="" style="edgeStyle=orthogonalEdgeStyle;rounded=0;orthogonalLoop=1;jettySize=auto;html=1;exitX=1;exitY=0.5;exitDx=0;exitDy=0;" parent="WIyWlLk6GJQsqaUBKTNV-1" source="1B1cMPSORAF4av0CPrEg-0" target="1B1cMPSORAF4av0CPrEg-11" edge="1">
          <mxGeometry relative="1" as="geometry">
            <mxPoint x="510" y="230" as="sourcePoint" />
            <Array as="points">
              <mxPoint x="520" y="1220" />
              <mxPoint x="520" y="200" />
            </Array>
          </mxGeometry>
        </mxCell>
        <mxCell id="SXd2BRhRPIDq4cuI7gyY-16" value="" style="edgeStyle=orthogonalEdgeStyle;rounded=0;orthogonalLoop=1;jettySize=auto;html=1;" parent="WIyWlLk6GJQsqaUBKTNV-1" target="SXd2BRhRPIDq4cuI7gyY-15" edge="1">
          <mxGeometry relative="1" as="geometry">
            <Array as="points">
              <mxPoint x="800" y="200" />
              <mxPoint x="800" y="-140" />
            </Array>
            <mxPoint x="760" y="200" as="sourcePoint" />
          </mxGeometry>
        </mxCell>
        <mxCell id="SXd2BRhRPIDq4cuI7gyY-18" value="" style="edgeStyle=orthogonalEdgeStyle;rounded=0;orthogonalLoop=1;jettySize=auto;html=1;" parent="WIyWlLk6GJQsqaUBKTNV-1" target="SXd2BRhRPIDq4cuI7gyY-17" edge="1">
          <mxGeometry relative="1" as="geometry">
            <Array as="points">
              <mxPoint x="800" y="200" />
              <mxPoint x="800" y="-50" />
            </Array>
            <mxPoint x="760" y="200" as="sourcePoint" />
          </mxGeometry>
        </mxCell>
        <mxCell id="SXd2BRhRPIDq4cuI7gyY-25" value="" style="edgeStyle=orthogonalEdgeStyle;rounded=0;orthogonalLoop=1;jettySize=auto;html=1;" parent="WIyWlLk6GJQsqaUBKTNV-1" source="SXd2BRhRPIDq4cuI7gyY-19" target="SXd2BRhRPIDq4cuI7gyY-24" edge="1">
          <mxGeometry relative="1" as="geometry">
            <Array as="points">
              <mxPoint x="800" y="40" />
              <mxPoint x="800" y="140" />
            </Array>
          </mxGeometry>
        </mxCell>
        <mxCell id="1B1cMPSORAF4av0CPrEg-11" value="&lt;div style=&quot;text-align: left;&quot;&gt;&lt;span style=&quot;background-color: initial;&quot;&gt;&lt;b&gt;nimcore/input.F90:read_namelist&lt;/b&gt;&lt;/span&gt;&lt;/div&gt;&lt;div style=&quot;text-align: left;&quot;&gt;module: local, input, pardata, io&lt;/div&gt;" style="whiteSpace=wrap;html=1;rounded=1;glass=0;strokeWidth=1;shadow=0;" parent="WIyWlLk6GJQsqaUBKTNV-1" vertex="1">
          <mxGeometry x="550" y="170" width="220" height="60" as="geometry" />
        </mxCell>
        <mxCell id="SXd2BRhRPIDq4cuI7gyY-42" style="edgeStyle=orthogonalEdgeStyle;rounded=0;orthogonalLoop=1;jettySize=auto;html=1;exitX=1;exitY=0.5;exitDx=0;exitDy=0;entryX=0;entryY=0.5;entryDx=0;entryDy=0;" parent="WIyWlLk6GJQsqaUBKTNV-1" target="SXd2BRhRPIDq4cuI7gyY-36" edge="1">
          <mxGeometry relative="1" as="geometry">
            <mxPoint x="890" y="340" as="sourcePoint" />
            <Array as="points">
              <mxPoint x="1180" y="341" />
              <mxPoint x="1180" y="-120" />
            </Array>
          </mxGeometry>
        </mxCell>
        <mxCell id="SXd2BRhRPIDq4cuI7gyY-43" style="edgeStyle=orthogonalEdgeStyle;rounded=0;orthogonalLoop=1;jettySize=auto;html=1;exitX=1;exitY=0.5;exitDx=0;exitDy=0;entryX=0;entryY=0.5;entryDx=0;entryDy=0;" parent="WIyWlLk6GJQsqaUBKTNV-1" target="SXd2BRhRPIDq4cuI7gyY-38" edge="1">
          <mxGeometry relative="1" as="geometry">
            <Array as="points">
              <mxPoint x="1180" y="340" />
              <mxPoint x="1180" y="-40" />
            </Array>
            <mxPoint x="890" y="340" as="sourcePoint" />
          </mxGeometry>
        </mxCell>
        <mxCell id="SXd2BRhRPIDq4cuI7gyY-44" style="edgeStyle=orthogonalEdgeStyle;rounded=0;orthogonalLoop=1;jettySize=auto;html=1;exitX=1;exitY=0.5;exitDx=0;exitDy=0;entryX=0;entryY=0.5;entryDx=0;entryDy=0;" parent="WIyWlLk6GJQsqaUBKTNV-1" target="SXd2BRhRPIDq4cuI7gyY-37" edge="1">
          <mxGeometry relative="1" as="geometry">
            <Array as="points">
              <mxPoint x="1180" y="340" />
              <mxPoint x="1180" y="26" />
            </Array>
            <mxPoint x="890" y="340" as="sourcePoint" />
          </mxGeometry>
        </mxCell>
        <mxCell id="SXd2BRhRPIDq4cuI7gyY-45" style="edgeStyle=orthogonalEdgeStyle;rounded=0;orthogonalLoop=1;jettySize=auto;html=1;exitX=1;exitY=0.5;exitDx=0;exitDy=0;entryX=0;entryY=0.5;entryDx=0;entryDy=0;" parent="WIyWlLk6GJQsqaUBKTNV-1" source="1B1cMPSORAF4av0CPrEg-13" target="SXd2BRhRPIDq4cuI7gyY-39" edge="1">
          <mxGeometry relative="1" as="geometry">
            <Array as="points">
              <mxPoint x="1180" y="340" />
              <mxPoint x="1180" y="100" />
            </Array>
          </mxGeometry>
        </mxCell>
        <mxCell id="SXd2BRhRPIDq4cuI7gyY-46" style="edgeStyle=orthogonalEdgeStyle;rounded=0;orthogonalLoop=1;jettySize=auto;html=1;exitX=1;exitY=0.5;exitDx=0;exitDy=0;entryX=0;entryY=0.5;entryDx=0;entryDy=0;" parent="WIyWlLk6GJQsqaUBKTNV-1" source="1B1cMPSORAF4av0CPrEg-13" target="SXd2BRhRPIDq4cuI7gyY-40" edge="1">
          <mxGeometry relative="1" as="geometry">
            <Array as="points">
              <mxPoint x="1180" y="340" />
              <mxPoint x="1180" y="170" />
            </Array>
          </mxGeometry>
        </mxCell>
        <mxCell id="SXd2BRhRPIDq4cuI7gyY-47" style="edgeStyle=orthogonalEdgeStyle;rounded=0;orthogonalLoop=1;jettySize=auto;html=1;exitX=1;exitY=0.5;exitDx=0;exitDy=0;entryX=0;entryY=0.5;entryDx=0;entryDy=0;" parent="WIyWlLk6GJQsqaUBKTNV-1" target="SXd2BRhRPIDq4cuI7gyY-41" edge="1">
          <mxGeometry relative="1" as="geometry">
            <Array as="points">
              <mxPoint x="1180" y="340" />
              <mxPoint x="1180" y="240" />
            </Array>
            <mxPoint x="890" y="340" as="sourcePoint" />
          </mxGeometry>
        </mxCell>
        <mxCell id="1B1cMPSORAF4av0CPrEg-13" value="&lt;b&gt;nimcore/dump_ser.F90:dump_read&lt;/b&gt;&lt;br&gt;module: inpupt, io, fields, seam_storage_mod, time, normalize_mod, rt_swap_mod, physdat" style="whiteSpace=wrap;html=1;rounded=1;glass=0;strokeWidth=1;shadow=0;" parent="WIyWlLk6GJQsqaUBKTNV-1" vertex="1">
          <mxGeometry x="550" y="310" width="220" height="60" as="geometry" />
        </mxCell>
        <mxCell id="1B1cMPSORAF4av0CPrEg-14" value="" style="edgeStyle=orthogonalEdgeStyle;rounded=0;orthogonalLoop=1;jettySize=auto;html=1;exitX=1;exitY=0.5;exitDx=0;exitDy=0;" parent="WIyWlLk6GJQsqaUBKTNV-1" source="1B1cMPSORAF4av0CPrEg-0" target="1B1cMPSORAF4av0CPrEg-15" edge="1">
          <mxGeometry relative="1" as="geometry">
            <mxPoint x="530" y="250" as="sourcePoint" />
            <Array as="points">
              <mxPoint x="520" y="1220" />
              <mxPoint x="520" y="500" />
            </Array>
          </mxGeometry>
        </mxCell>
        <mxCell id="1B1cMPSORAF4av0CPrEg-15" value="&lt;b&gt;random_seed(&lt;/b&gt;&lt;b style=&quot;border-color: var(--border-color);&quot;&gt;Built-in functions&lt;/b&gt;&lt;b&gt;)&lt;/b&gt;&lt;br&gt;&lt;div&gt;For regression testing set&amp;nbsp;&lt;span style=&quot;background-color: initial;&quot;&gt;the random seed&lt;/span&gt;&lt;/div&gt;" style="whiteSpace=wrap;html=1;rounded=1;glass=0;strokeWidth=1;shadow=0;align=left;" parent="WIyWlLk6GJQsqaUBKTNV-1" vertex="1">
          <mxGeometry x="550" y="470" width="150" height="60" as="geometry" />
        </mxCell>
        <mxCell id="1B1cMPSORAF4av0CPrEg-16" value="" style="edgeStyle=orthogonalEdgeStyle;rounded=0;orthogonalLoop=1;jettySize=auto;html=1;exitX=1;exitY=0.5;exitDx=0;exitDy=0;" parent="WIyWlLk6GJQsqaUBKTNV-1" source="1B1cMPSORAF4av0CPrEg-0" target="1B1cMPSORAF4av0CPrEg-17" edge="1">
          <mxGeometry relative="1" as="geometry">
            <mxPoint x="540" y="260" as="sourcePoint" />
            <Array as="points">
              <mxPoint x="520" y="1220" />
              <mxPoint x="520" y="1030" />
            </Array>
          </mxGeometry>
        </mxCell>
        <mxCell id="1B1cMPSORAF4av0CPrEg-17" value="&lt;b&gt;mass_mat_init&lt;/b&gt;&lt;br&gt;&lt;div&gt;create the mass matrix and&amp;nbsp;&lt;span style=&quot;background-color: initial;&quot;&gt;storage locations for other&amp;nbsp;&lt;/span&gt;&lt;span style=&quot;background-color: initial;&quot;&gt;matrices&lt;/span&gt;&lt;/div&gt;" style="whiteSpace=wrap;html=1;rounded=1;glass=0;strokeWidth=1;shadow=0;align=left;" parent="WIyWlLk6GJQsqaUBKTNV-1" vertex="1">
          <mxGeometry x="550" y="1000" width="150" height="60" as="geometry" />
        </mxCell>
        <mxCell id="1B1cMPSORAF4av0CPrEg-18" value="" style="edgeStyle=orthogonalEdgeStyle;rounded=0;orthogonalLoop=1;jettySize=auto;html=1;exitX=1;exitY=0.5;exitDx=0;exitDy=0;" parent="WIyWlLk6GJQsqaUBKTNV-1" source="1B1cMPSORAF4av0CPrEg-0" target="1B1cMPSORAF4av0CPrEg-19" edge="1">
          <mxGeometry relative="1" as="geometry">
            <mxPoint x="550" y="270" as="sourcePoint" />
            <Array as="points">
              <mxPoint x="520" y="1220" />
              <mxPoint x="520" y="950" />
            </Array>
          </mxGeometry>
        </mxCell>
        <mxCell id="1B1cMPSORAF4av0CPrEg-19" value="cell_init" style="whiteSpace=wrap;html=1;rounded=1;glass=0;strokeWidth=1;shadow=0;" parent="WIyWlLk6GJQsqaUBKTNV-1" vertex="1">
          <mxGeometry x="550" y="920" width="120" height="60" as="geometry" />
        </mxCell>
        <mxCell id="1B1cMPSORAF4av0CPrEg-20" value="" style="edgeStyle=orthogonalEdgeStyle;rounded=0;orthogonalLoop=1;jettySize=auto;html=1;exitX=1;exitY=0.5;exitDx=0;exitDy=0;" parent="WIyWlLk6GJQsqaUBKTNV-1" source="1B1cMPSORAF4av0CPrEg-0" target="1B1cMPSORAF4av0CPrEg-21" edge="1">
          <mxGeometry relative="1" as="geometry">
            <mxPoint x="560" y="280" as="sourcePoint" />
            <Array as="points">
              <mxPoint x="520" y="1220" />
              <mxPoint x="520" y="870" />
            </Array>
          </mxGeometry>
        </mxCell>
        <mxCell id="1B1cMPSORAF4av0CPrEg-21" value="&lt;b&gt;variable_edge_init&lt;/b&gt;&lt;br&gt;&lt;div&gt;Allocate and set quantities&amp;nbsp;&lt;span style=&quot;background-color: initial;&quot;&gt;for the edge&lt;/span&gt;&lt;/div&gt;" style="whiteSpace=wrap;html=1;rounded=1;glass=0;strokeWidth=1;shadow=0;align=left;" parent="WIyWlLk6GJQsqaUBKTNV-1" vertex="1">
          <mxGeometry x="550" y="840" width="120" height="60" as="geometry" />
        </mxCell>
        <mxCell id="1B1cMPSORAF4av0CPrEg-22" value="" style="edgeStyle=orthogonalEdgeStyle;rounded=0;orthogonalLoop=1;jettySize=auto;html=1;exitX=1;exitY=0.5;exitDx=0;exitDy=0;" parent="WIyWlLk6GJQsqaUBKTNV-1" source="1B1cMPSORAF4av0CPrEg-0" target="1B1cMPSORAF4av0CPrEg-23" edge="1">
          <mxGeometry relative="1" as="geometry">
            <mxPoint x="570" y="290" as="sourcePoint" />
            <Array as="points">
              <mxPoint x="520" y="1220" />
              <mxPoint x="520" y="800" />
            </Array>
          </mxGeometry>
        </mxCell>
        <mxCell id="1B1cMPSORAF4av0CPrEg-23" value="&lt;b&gt;block_create_tang&lt;/b&gt;&lt;br&gt;&lt;div&gt;compute external block&amp;nbsp;&lt;span style=&quot;background-color: initial;&quot;&gt;surface tangents&lt;/span&gt;&lt;/div&gt;" style="whiteSpace=wrap;html=1;rounded=1;glass=0;strokeWidth=1;shadow=0;align=left;" parent="WIyWlLk6GJQsqaUBKTNV-1" vertex="1">
          <mxGeometry x="550" y="770" width="120" height="60" as="geometry" />
        </mxCell>
        <mxCell id="1B1cMPSORAF4av0CPrEg-25" value="pointer_init" style="whiteSpace=wrap;html=1;rounded=1;glass=0;strokeWidth=1;shadow=0;" parent="WIyWlLk6GJQsqaUBKTNV-1" vertex="1">
          <mxGeometry x="550" y="700" width="120" height="60" as="geometry" />
        </mxCell>
        <mxCell id="1B1cMPSORAF4av0CPrEg-26" value="" style="edgeStyle=orthogonalEdgeStyle;rounded=0;orthogonalLoop=1;jettySize=auto;html=1;exitX=1;exitY=0.5;exitDx=0;exitDy=0;" parent="WIyWlLk6GJQsqaUBKTNV-1" source="1B1cMPSORAF4av0CPrEg-0" target="1B1cMPSORAF4av0CPrEg-27" edge="1">
          <mxGeometry relative="1" as="geometry">
            <mxPoint x="590" y="310" as="sourcePoint" />
            <Array as="points">
              <mxPoint x="520" y="1220" />
              <mxPoint x="520" y="660" />
            </Array>
          </mxGeometry>
        </mxCell>
        <mxCell id="RLY1yqrqXE7ZBBlZP0H9-35" value="" style="edgeStyle=orthogonalEdgeStyle;rounded=0;orthogonalLoop=1;jettySize=auto;html=1;" edge="1" parent="WIyWlLk6GJQsqaUBKTNV-1" source="1B1cMPSORAF4av0CPrEg-27" target="RLY1yqrqXE7ZBBlZP0H9-34">
          <mxGeometry relative="1" as="geometry">
            <Array as="points">
              <mxPoint x="150" y="663" />
              <mxPoint x="150" y="299" />
            </Array>
          </mxGeometry>
        </mxCell>
        <mxCell id="RLY1yqrqXE7ZBBlZP0H9-41" style="edgeStyle=orthogonalEdgeStyle;rounded=0;orthogonalLoop=1;jettySize=auto;html=1;exitX=0;exitY=0.5;exitDx=0;exitDy=0;entryX=1;entryY=0.5;entryDx=0;entryDy=0;" edge="1" parent="WIyWlLk6GJQsqaUBKTNV-1" source="1B1cMPSORAF4av0CPrEg-27" target="RLY1yqrqXE7ZBBlZP0H9-40">
          <mxGeometry relative="1" as="geometry">
            <Array as="points">
              <mxPoint x="150" y="663" />
              <mxPoint x="150" y="656" />
            </Array>
          </mxGeometry>
        </mxCell>
        <mxCell id="RLY1yqrqXE7ZBBlZP0H9-42" style="edgeStyle=orthogonalEdgeStyle;rounded=0;orthogonalLoop=1;jettySize=auto;html=1;exitX=0;exitY=0.5;exitDx=0;exitDy=0;entryX=1;entryY=0.5;entryDx=0;entryDy=0;" edge="1" parent="WIyWlLk6GJQsqaUBKTNV-1" source="1B1cMPSORAF4av0CPrEg-27" target="RLY1yqrqXE7ZBBlZP0H9-39">
          <mxGeometry relative="1" as="geometry">
            <Array as="points">
              <mxPoint x="150" y="663" />
              <mxPoint x="150" y="586" />
            </Array>
          </mxGeometry>
        </mxCell>
        <mxCell id="RLY1yqrqXE7ZBBlZP0H9-43" style="edgeStyle=orthogonalEdgeStyle;rounded=0;orthogonalLoop=1;jettySize=auto;html=1;exitX=0;exitY=0.5;exitDx=0;exitDy=0;entryX=1;entryY=0.5;entryDx=0;entryDy=0;" edge="1" parent="WIyWlLk6GJQsqaUBKTNV-1" source="1B1cMPSORAF4av0CPrEg-27" target="RLY1yqrqXE7ZBBlZP0H9-38">
          <mxGeometry relative="1" as="geometry">
            <Array as="points">
              <mxPoint x="150" y="663" />
              <mxPoint x="150" y="516" />
            </Array>
          </mxGeometry>
        </mxCell>
        <mxCell id="RLY1yqrqXE7ZBBlZP0H9-44" style="edgeStyle=orthogonalEdgeStyle;rounded=0;orthogonalLoop=1;jettySize=auto;html=1;exitX=0;exitY=0.5;exitDx=0;exitDy=0;entryX=1;entryY=0.5;entryDx=0;entryDy=0;" edge="1" parent="WIyWlLk6GJQsqaUBKTNV-1" source="1B1cMPSORAF4av0CPrEg-27" target="RLY1yqrqXE7ZBBlZP0H9-37">
          <mxGeometry relative="1" as="geometry">
            <Array as="points">
              <mxPoint x="150" y="663" />
              <mxPoint x="150" y="446" />
            </Array>
          </mxGeometry>
        </mxCell>
        <mxCell id="RLY1yqrqXE7ZBBlZP0H9-45" style="edgeStyle=orthogonalEdgeStyle;rounded=0;orthogonalLoop=1;jettySize=auto;html=1;exitX=0;exitY=0.5;exitDx=0;exitDy=0;entryX=1;entryY=0.5;entryDx=0;entryDy=0;" edge="1" parent="WIyWlLk6GJQsqaUBKTNV-1" source="1B1cMPSORAF4av0CPrEg-27" target="RLY1yqrqXE7ZBBlZP0H9-36">
          <mxGeometry relative="1" as="geometry">
            <Array as="points">
              <mxPoint x="150" y="663" />
              <mxPoint x="150" y="376" />
            </Array>
          </mxGeometry>
        </mxCell>
        <mxCell id="1B1cMPSORAF4av0CPrEg-27" value="&lt;b&gt;nimrod/nimrod_init.f90:variable_alloc&lt;/b&gt;&lt;br&gt;&lt;div style=&quot;&quot;&gt;allocate dependent variables&amp;nbsp;&lt;span style=&quot;background-color: initial;&quot;&gt;in the rb and tb&amp;nbsp;&lt;/span&gt;&lt;span style=&quot;background-color: initial;&quot;&gt;structures.&lt;/span&gt;&lt;/div&gt;&lt;div style=&quot;&quot;&gt;&lt;span style=&quot;background-color: initial;&quot;&gt;module: io, local, fiels, global, input, computation_pointers, rblock, physdat, pardat&lt;/span&gt;&lt;/div&gt;" style="whiteSpace=wrap;html=1;rounded=1;glass=0;strokeWidth=1;shadow=0;align=left;" parent="WIyWlLk6GJQsqaUBKTNV-1" vertex="1">
          <mxGeometry x="180" y="633.5" width="305" height="60" as="geometry" />
        </mxCell>
        <mxCell id="Dau_Bh_cS4Phi9B8vHtt-1" value="" style="edgeStyle=orthogonalEdgeStyle;rounded=0;orthogonalLoop=1;jettySize=auto;html=1;" parent="WIyWlLk6GJQsqaUBKTNV-1" source="1B1cMPSORAF4av0CPrEg-29" target="Dau_Bh_cS4Phi9B8vHtt-0" edge="1">
          <mxGeometry relative="1" as="geometry">
            <Array as="points">
              <mxPoint x="710" y="590" />
              <mxPoint x="710" y="400" />
            </Array>
          </mxGeometry>
        </mxCell>
        <mxCell id="Dau_Bh_cS4Phi9B8vHtt-3" value="" style="edgeStyle=orthogonalEdgeStyle;rounded=0;orthogonalLoop=1;jettySize=auto;html=1;" parent="WIyWlLk6GJQsqaUBKTNV-1" source="1B1cMPSORAF4av0CPrEg-29" target="Dau_Bh_cS4Phi9B8vHtt-2" edge="1">
          <mxGeometry relative="1" as="geometry">
            <Array as="points">
              <mxPoint x="710" y="590" />
              <mxPoint x="710" y="453" />
            </Array>
          </mxGeometry>
        </mxCell>
        <mxCell id="Dau_Bh_cS4Phi9B8vHtt-11" style="edgeStyle=orthogonalEdgeStyle;rounded=0;orthogonalLoop=1;jettySize=auto;html=1;exitX=1;exitY=0.5;exitDx=0;exitDy=0;entryX=0;entryY=0.5;entryDx=0;entryDy=0;" parent="WIyWlLk6GJQsqaUBKTNV-1" source="1B1cMPSORAF4av0CPrEg-29" target="Dau_Bh_cS4Phi9B8vHtt-8" edge="1">
          <mxGeometry relative="1" as="geometry">
            <Array as="points">
              <mxPoint x="710" y="590" />
              <mxPoint x="710" y="550" />
            </Array>
          </mxGeometry>
        </mxCell>
        <mxCell id="Dau_Bh_cS4Phi9B8vHtt-12" style="edgeStyle=orthogonalEdgeStyle;rounded=0;orthogonalLoop=1;jettySize=auto;html=1;exitX=1;exitY=0.5;exitDx=0;exitDy=0;entryX=0;entryY=0.5;entryDx=0;entryDy=0;" parent="WIyWlLk6GJQsqaUBKTNV-1" source="1B1cMPSORAF4av0CPrEg-29" target="Dau_Bh_cS4Phi9B8vHtt-9" edge="1">
          <mxGeometry relative="1" as="geometry">
            <Array as="points">
              <mxPoint x="710" y="590" />
              <mxPoint x="710" y="610" />
            </Array>
          </mxGeometry>
        </mxCell>
        <mxCell id="Dau_Bh_cS4Phi9B8vHtt-13" style="edgeStyle=orthogonalEdgeStyle;rounded=0;orthogonalLoop=1;jettySize=auto;html=1;exitX=1;exitY=0.5;exitDx=0;exitDy=0;entryX=0;entryY=0.5;entryDx=0;entryDy=0;" parent="WIyWlLk6GJQsqaUBKTNV-1" source="1B1cMPSORAF4av0CPrEg-29" target="Dau_Bh_cS4Phi9B8vHtt-10" edge="1">
          <mxGeometry relative="1" as="geometry">
            <Array as="points">
              <mxPoint x="710" y="590" />
              <mxPoint x="710" y="663" />
              <mxPoint x="740" y="663" />
            </Array>
          </mxGeometry>
        </mxCell>
        <mxCell id="RLY1yqrqXE7ZBBlZP0H9-16" style="edgeStyle=orthogonalEdgeStyle;rounded=0;orthogonalLoop=1;jettySize=auto;html=1;exitX=1;exitY=0.5;exitDx=0;exitDy=0;entryX=0;entryY=0.5;entryDx=0;entryDy=0;" edge="1" parent="WIyWlLk6GJQsqaUBKTNV-1" source="1B1cMPSORAF4av0CPrEg-29" target="Dau_Bh_cS4Phi9B8vHtt-6">
          <mxGeometry relative="1" as="geometry">
            <Array as="points">
              <mxPoint x="710" y="590" />
              <mxPoint x="710" y="520" />
            </Array>
          </mxGeometry>
        </mxCell>
        <mxCell id="RLY1yqrqXE7ZBBlZP0H9-17" style="edgeStyle=orthogonalEdgeStyle;rounded=0;orthogonalLoop=1;jettySize=auto;html=1;exitX=1;exitY=0.5;exitDx=0;exitDy=0;entryX=0;entryY=0.5;entryDx=0;entryDy=0;" edge="1" parent="WIyWlLk6GJQsqaUBKTNV-1" source="1B1cMPSORAF4av0CPrEg-29" target="Dau_Bh_cS4Phi9B8vHtt-4">
          <mxGeometry relative="1" as="geometry">
            <Array as="points">
              <mxPoint x="710" y="590" />
              <mxPoint x="710" y="491" />
            </Array>
          </mxGeometry>
        </mxCell>
        <mxCell id="1B1cMPSORAF4av0CPrEg-29" value="&lt;b&gt;nimrod/parallel_init.F90&lt;br&gt;setup_blocks_precon&lt;/b&gt;&lt;br&gt;&lt;div&gt;&lt;span style=&quot;background-color: initial;&quot;&gt;modules: input, global, mpi_nim, rblock, tblock, edge, surface, local, fields, pardata, superlu_dist_mod&lt;/span&gt;&lt;br&gt;&lt;/div&gt;" style="whiteSpace=wrap;html=1;rounded=1;glass=0;strokeWidth=1;shadow=0;align=left;" parent="WIyWlLk6GJQsqaUBKTNV-1" vertex="1">
          <mxGeometry x="530" y="560" width="150" height="60" as="geometry" />
        </mxCell>
        <mxCell id="1B1cMPSORAF4av0CPrEg-30" value="" style="edgeStyle=orthogonalEdgeStyle;rounded=0;orthogonalLoop=1;jettySize=auto;html=1;exitX=1;exitY=0.5;exitDx=0;exitDy=0;" parent="WIyWlLk6GJQsqaUBKTNV-1" source="1B1cMPSORAF4av0CPrEg-0" target="1B1cMPSORAF4av0CPrEg-31" edge="1">
          <mxGeometry relative="1" as="geometry">
            <mxPoint x="610" y="330" as="sourcePoint" />
            <Array as="points">
              <mxPoint x="520" y="1220" />
              <mxPoint x="520" y="420" />
            </Array>
          </mxGeometry>
        </mxCell>
        <mxCell id="1B1cMPSORAF4av0CPrEg-31" value="&lt;b&gt;signal (Built-in functions&lt;/b&gt;&lt;b&gt;)&lt;/b&gt;&lt;br&gt;&lt;div&gt;prepare handler for&lt;/div&gt;&lt;div&gt;interupt signal&lt;/div&gt;" style="whiteSpace=wrap;html=1;rounded=1;glass=0;strokeWidth=1;shadow=0;align=left;" parent="WIyWlLk6GJQsqaUBKTNV-1" vertex="1">
          <mxGeometry x="550" y="390" width="150" height="60" as="geometry" />
        </mxCell>
        <mxCell id="1B1cMPSORAF4av0CPrEg-32" value="" style="edgeStyle=orthogonalEdgeStyle;rounded=0;orthogonalLoop=1;jettySize=auto;html=1;exitX=1;exitY=0.5;exitDx=0;exitDy=0;" parent="WIyWlLk6GJQsqaUBKTNV-1" source="1B1cMPSORAF4av0CPrEg-0" target="1B1cMPSORAF4av0CPrEg-33" edge="1">
          <mxGeometry relative="1" as="geometry">
            <mxPoint x="490" y="560" as="sourcePoint" />
            <Array as="points">
              <mxPoint x="520" y="1220" />
              <mxPoint x="520" y="270" />
            </Array>
          </mxGeometry>
        </mxCell>
        <mxCell id="SXd2BRhRPIDq4cuI7gyY-28" value="" style="edgeStyle=orthogonalEdgeStyle;rounded=0;orthogonalLoop=1;jettySize=auto;html=1;" parent="WIyWlLk6GJQsqaUBKTNV-1" target="SXd2BRhRPIDq4cuI7gyY-27" edge="1">
          <mxGeometry relative="1" as="geometry">
            <mxPoint x="760" y="270" as="sourcePoint" />
            <Array as="points">
              <mxPoint x="760" y="271" />
              <mxPoint x="800" y="271" />
              <mxPoint x="800" y="220" />
            </Array>
          </mxGeometry>
        </mxCell>
        <mxCell id="SXd2BRhRPIDq4cuI7gyY-33" style="edgeStyle=orthogonalEdgeStyle;rounded=0;orthogonalLoop=1;jettySize=auto;html=1;exitX=1;exitY=0.5;exitDx=0;exitDy=0;entryX=0;entryY=0.5;entryDx=0;entryDy=0;" parent="WIyWlLk6GJQsqaUBKTNV-1" source="1B1cMPSORAF4av0CPrEg-33" target="SXd2BRhRPIDq4cuI7gyY-32" edge="1">
          <mxGeometry relative="1" as="geometry">
            <mxPoint x="760" y="270" as="sourcePoint" />
            <Array as="points">
              <mxPoint x="800" y="270" />
              <mxPoint x="800" y="290" />
            </Array>
          </mxGeometry>
        </mxCell>
        <mxCell id="1B1cMPSORAF4av0CPrEg-33" value="&lt;b&gt;nimrod/parallel_ini.F90:physdat_init&lt;/b&gt;&lt;br&gt;&lt;div style=&quot;text-align: left;&quot;&gt;&lt;span style=&quot;background-color: initial;&quot;&gt;module: input, physdat, io, pardata&lt;/span&gt;&lt;/div&gt;" style="whiteSpace=wrap;html=1;rounded=1;glass=0;strokeWidth=1;shadow=0;" parent="WIyWlLk6GJQsqaUBKTNV-1" vertex="1">
          <mxGeometry x="550" y="240" width="220" height="60" as="geometry" />
        </mxCell>
        <mxCell id="1B1cMPSORAF4av0CPrEg-36" value="boundary_vals_init" style="whiteSpace=wrap;html=1;rounded=1;glass=0;strokeWidth=1;shadow=0;" parent="WIyWlLk6GJQsqaUBKTNV-1" vertex="1">
          <mxGeometry x="550" y="1150" width="120" height="60" as="geometry" />
        </mxCell>
        <mxCell id="1B1cMPSORAF4av0CPrEg-38" value="matrix_init" style="whiteSpace=wrap;html=1;rounded=1;glass=0;strokeWidth=1;shadow=0;" parent="WIyWlLk6GJQsqaUBKTNV-1" vertex="1">
          <mxGeometry x="550" y="1080" width="120" height="60" as="geometry" />
        </mxCell>
        <mxCell id="1B1cMPSORAF4av0CPrEg-40" value="applV0_init" style="whiteSpace=wrap;html=1;rounded=1;glass=0;strokeWidth=1;shadow=0;" parent="WIyWlLk6GJQsqaUBKTNV-1" vertex="1">
          <mxGeometry x="550" y="1230" width="120" height="60" as="geometry" />
        </mxCell>
        <mxCell id="1B1cMPSORAF4av0CPrEg-42" value="find_bdglnB" style="whiteSpace=wrap;html=1;rounded=1;glass=0;strokeWidth=1;shadow=0;" parent="WIyWlLk6GJQsqaUBKTNV-1" vertex="1">
          <mxGeometry x="550" y="1880" width="120" height="60" as="geometry" />
        </mxCell>
        <mxCell id="1B1cMPSORAF4av0CPrEg-44" value="find_bb" style="whiteSpace=wrap;html=1;rounded=1;glass=0;strokeWidth=1;shadow=0;" parent="WIyWlLk6GJQsqaUBKTNV-1" vertex="1">
          <mxGeometry x="550" y="1812" width="120" height="60" as="geometry" />
        </mxCell>
        <mxCell id="1B1cMPSORAF4av0CPrEg-46" value="find_bmod" style="whiteSpace=wrap;html=1;rounded=1;glass=0;strokeWidth=1;shadow=0;" parent="WIyWlLk6GJQsqaUBKTNV-1" vertex="1">
          <mxGeometry x="550" y="1746" width="120" height="60" as="geometry" />
        </mxCell>
        <mxCell id="1B1cMPSORAF4av0CPrEg-52" value="source_init" style="whiteSpace=wrap;html=1;rounded=1;glass=0;strokeWidth=1;shadow=0;" parent="WIyWlLk6GJQsqaUBKTNV-1" vertex="1">
          <mxGeometry x="550" y="1470" width="120" height="60" as="geometry" />
        </mxCell>
        <mxCell id="1B1cMPSORAF4av0CPrEg-54" value="probe_hist_init" style="whiteSpace=wrap;html=1;rounded=1;glass=0;strokeWidth=1;shadow=0;" parent="WIyWlLk6GJQsqaUBKTNV-1" vertex="1">
          <mxGeometry x="550" y="1540" width="120" height="60" as="geometry" />
        </mxCell>
        <mxCell id="1B1cMPSORAF4av0CPrEg-56" value="b_store" style="whiteSpace=wrap;html=1;rounded=1;glass=0;strokeWidth=1;shadow=0;" parent="WIyWlLk6GJQsqaUBKTNV-1" vertex="1">
          <mxGeometry x="550" y="1679" width="120" height="60" as="geometry" />
        </mxCell>
        <mxCell id="1B1cMPSORAF4av0CPrEg-50" value="quadrature_save" style="whiteSpace=wrap;html=1;rounded=1;glass=0;strokeWidth=1;shadow=0;" parent="WIyWlLk6GJQsqaUBKTNV-1" vertex="1">
          <mxGeometry x="550" y="1390" width="120" height="60" as="geometry" />
        </mxCell>
        <mxCell id="1B1cMPSORAF4av0CPrEg-48" value="soln_save" style="whiteSpace=wrap;html=1;rounded=1;glass=0;strokeWidth=1;shadow=0;" parent="WIyWlLk6GJQsqaUBKTNV-1" vertex="1">
          <mxGeometry x="550" y="1310" width="120" height="60" as="geometry" />
        </mxCell>
        <mxCell id="1B1cMPSORAF4av0CPrEg-59" value="extrap_init" style="whiteSpace=wrap;html=1;rounded=1;glass=0;strokeWidth=1;shadow=0;" parent="WIyWlLk6GJQsqaUBKTNV-1" vertex="1">
          <mxGeometry x="550" y="2160" width="120" height="60" as="geometry" />
        </mxCell>
        <mxCell id="1B1cMPSORAF4av0CPrEg-60" value="find_gradb" style="whiteSpace=wrap;html=1;rounded=1;glass=0;strokeWidth=1;shadow=0;" parent="WIyWlLk6GJQsqaUBKTNV-1" vertex="1">
          <mxGeometry x="550" y="1950" width="120" height="60" as="geometry" />
        </mxCell>
        <mxCell id="1B1cMPSORAF4av0CPrEg-61" value="rho_from_mn" style="whiteSpace=wrap;html=1;rounded=1;glass=0;strokeWidth=1;shadow=0;" parent="WIyWlLk6GJQsqaUBKTNV-1" vertex="1">
          <mxGeometry x="550" y="2020" width="120" height="60" as="geometry" />
        </mxCell>
        <mxCell id="1B1cMPSORAF4av0CPrEg-62" value="new_dt" style="whiteSpace=wrap;html=1;rounded=1;glass=0;strokeWidth=1;shadow=0;" parent="WIyWlLk6GJQsqaUBKTNV-1" vertex="1">
          <mxGeometry x="550" y="2090" width="120" height="60" as="geometry" />
        </mxCell>
        <mxCell id="1B1cMPSORAF4av0CPrEg-65" value="extrap_alloc" style="whiteSpace=wrap;html=1;rounded=1;glass=0;strokeWidth=1;shadow=0;" parent="WIyWlLk6GJQsqaUBKTNV-1" vertex="1">
          <mxGeometry x="550" y="2240" width="120" height="60" as="geometry" />
        </mxCell>
        <mxCell id="6PSck7Jdm3lRho_DC61k-4" value="advance_lin" style="whiteSpace=wrap;html=1;rounded=1;glass=0;strokeWidth=1;shadow=0;" parent="WIyWlLk6GJQsqaUBKTNV-1" vertex="1">
          <mxGeometry x="550" y="2800" width="120" height="60" as="geometry" />
        </mxCell>
        <mxCell id="6PSck7Jdm3lRho_DC61k-6" value="&lt;b&gt;soln_save&lt;/b&gt;&lt;br&gt;&lt;div&gt;check if all of the iterative solves have converged. if not,&amp;nbsp;&lt;span style=&quot;background-color: initial;&quot;&gt;soln_save will restore the fields at the beginning of the&amp;nbsp;&lt;/span&gt;&lt;span style=&quot;background-color: initial;&quot;&gt;time-step and decrease dt.&lt;/span&gt;&lt;/div&gt;" style="whiteSpace=wrap;html=1;rounded=1;glass=0;strokeWidth=1;shadow=0;align=left;" parent="WIyWlLk6GJQsqaUBKTNV-1" vertex="1">
          <mxGeometry x="550" y="2890" width="270" height="60" as="geometry" />
        </mxCell>
        <mxCell id="6PSck7Jdm3lRho_DC61k-7" value="vcom_store" style="whiteSpace=wrap;html=1;rounded=1;glass=0;strokeWidth=1;shadow=0;" parent="WIyWlLk6GJQsqaUBKTNV-1" vertex="1">
          <mxGeometry x="550" y="2990" width="120" height="60" as="geometry" />
        </mxCell>
        <mxCell id="6PSck7Jdm3lRho_DC61k-8" value="vn_store" style="whiteSpace=wrap;html=1;rounded=1;glass=0;strokeWidth=1;shadow=0;" parent="WIyWlLk6GJQsqaUBKTNV-1" vertex="1">
          <mxGeometry x="550" y="3080" width="120" height="60" as="geometry" />
        </mxCell>
        <mxCell id="6PSck7Jdm3lRho_DC61k-9" value="advance_particles" style="whiteSpace=wrap;html=1;rounded=1;glass=0;strokeWidth=1;shadow=0;" parent="WIyWlLk6GJQsqaUBKTNV-1" vertex="1">
          <mxGeometry x="550" y="2710" width="120" height="60" as="geometry" />
        </mxCell>
        <mxCell id="6PSck7Jdm3lRho_DC61k-10" value="nim_output" style="whiteSpace=wrap;html=1;rounded=1;glass=0;strokeWidth=1;shadow=0;" parent="WIyWlLk6GJQsqaUBKTNV-1" vertex="1">
          <mxGeometry x="550" y="2610" width="120" height="60" as="geometry" />
        </mxCell>
        <mxCell id="6PSck7Jdm3lRho_DC61k-11" value="&lt;b&gt;divb_check&lt;/b&gt;&lt;br&gt;check the divergence(B)." style="whiteSpace=wrap;html=1;rounded=1;glass=0;strokeWidth=1;shadow=0;align=left;" parent="WIyWlLk6GJQsqaUBKTNV-1" vertex="1">
          <mxGeometry x="550" y="2500" width="120" height="60" as="geometry" />
        </mxCell>
        <mxCell id="6PSck7Jdm3lRho_DC61k-23" value="init_particles" style="whiteSpace=wrap;html=1;rounded=1;glass=0;strokeWidth=1;shadow=0;" parent="WIyWlLk6GJQsqaUBKTNV-1" vertex="1">
          <mxGeometry x="550" y="2310" width="120" height="60" as="geometry" />
        </mxCell>
        <mxCell id="SXd2BRhRPIDq4cuI7gyY-0" value="timer_init" style="whiteSpace=wrap;html=1;rounded=1;glass=0;strokeWidth=1;shadow=0;" parent="WIyWlLk6GJQsqaUBKTNV-1" vertex="1">
          <mxGeometry x="340" y="1610" width="130" height="60" as="geometry" />
        </mxCell>
        <mxCell id="SXd2BRhRPIDq4cuI7gyY-2" value="timer" style="whiteSpace=wrap;html=1;rounded=1;glass=0;strokeWidth=1;shadow=0;" parent="WIyWlLk6GJQsqaUBKTNV-1" vertex="1">
          <mxGeometry x="340" y="2010" width="130" height="60" as="geometry" />
        </mxCell>
        <mxCell id="SXd2BRhRPIDq4cuI7gyY-4" value="timer" style="whiteSpace=wrap;html=1;rounded=1;glass=0;strokeWidth=1;shadow=0;" parent="WIyWlLk6GJQsqaUBKTNV-1" vertex="1">
          <mxGeometry x="360" y="2923" width="130" height="60" as="geometry" />
        </mxCell>
        <mxCell id="SXd2BRhRPIDq4cuI7gyY-5" value="timer_close" style="whiteSpace=wrap;html=1;rounded=1;glass=0;strokeWidth=1;shadow=0;" parent="WIyWlLk6GJQsqaUBKTNV-1" vertex="1">
          <mxGeometry x="360" y="3070" width="130" height="60" as="geometry" />
        </mxCell>
        <mxCell id="SXd2BRhRPIDq4cuI7gyY-8" value="memlogger" style="whiteSpace=wrap;html=1;rounded=1;glass=0;strokeWidth=1;shadow=0;" parent="WIyWlLk6GJQsqaUBKTNV-1" vertex="1">
          <mxGeometry x="360" y="3210" width="130" height="60" as="geometry" />
        </mxCell>
        <mxCell id="SXd2BRhRPIDq4cuI7gyY-10" value="nim_stop" style="whiteSpace=wrap;html=1;rounded=1;glass=0;strokeWidth=1;shadow=0;" parent="WIyWlLk6GJQsqaUBKTNV-1" vertex="1">
          <mxGeometry x="360" y="3340" width="130" height="60" as="geometry" />
        </mxCell>
        <mxCell id="SXd2BRhRPIDq4cuI7gyY-13" value="&lt;b&gt;nim_mpi_initialize&lt;/b&gt;" style="whiteSpace=wrap;html=1;rounded=1;glass=0;strokeWidth=1;shadow=0;align=left;" parent="WIyWlLk6GJQsqaUBKTNV-1" vertex="1">
          <mxGeometry x="320" y="-40" width="120" height="60" as="geometry" />
        </mxCell>
        <mxCell id="SXd2BRhRPIDq4cuI7gyY-15" value="rmcoment" style="whiteSpace=wrap;html=1;rounded=1;glass=0;strokeWidth=1;shadow=0;" parent="WIyWlLk6GJQsqaUBKTNV-1" vertex="1">
          <mxGeometry x="842" y="-170" width="120" height="60" as="geometry" />
        </mxCell>
        <mxCell id="SXd2BRhRPIDq4cuI7gyY-17" value="nim_stop" style="whiteSpace=wrap;html=1;rounded=1;glass=0;strokeWidth=1;shadow=0;" parent="WIyWlLk6GJQsqaUBKTNV-1" vertex="1">
          <mxGeometry x="842" y="-80" width="120" height="60" as="geometry" />
        </mxCell>
        <mxCell id="SXd2BRhRPIDq4cuI7gyY-24" value="&lt;div style=&quot;text-align: left;&quot;&gt;&lt;b&gt;get_k2min&lt;/b&gt;&lt;/div&gt;" style="whiteSpace=wrap;html=1;rounded=1;glass=0;strokeWidth=1;shadow=0;" parent="WIyWlLk6GJQsqaUBKTNV-1" vertex="1">
          <mxGeometry x="842" y="110" width="120" height="60" as="geometry" />
        </mxCell>
        <mxCell id="SXd2BRhRPIDq4cuI7gyY-26" value="" style="edgeStyle=orthogonalEdgeStyle;rounded=0;orthogonalLoop=1;jettySize=auto;html=1;exitX=1;exitY=0.5;exitDx=0;exitDy=0;" parent="WIyWlLk6GJQsqaUBKTNV-1" source="1B1cMPSORAF4av0CPrEg-11" target="SXd2BRhRPIDq4cuI7gyY-19" edge="1">
          <mxGeometry relative="1" as="geometry">
            <mxPoint x="760" y="200" as="sourcePoint" />
            <mxPoint x="900" y="270" as="targetPoint" />
            <Array as="points">
              <mxPoint x="800" y="200" />
              <mxPoint x="800" y="40" />
            </Array>
          </mxGeometry>
        </mxCell>
        <mxCell id="SXd2BRhRPIDq4cuI7gyY-19" value="&lt;div style=&quot;text-align: left;&quot;&gt;&lt;b style=&quot;background-color: initial;&quot;&gt;poly_set&lt;/b&gt;&lt;/div&gt;" style="whiteSpace=wrap;html=1;rounded=1;glass=0;strokeWidth=1;shadow=0;" parent="WIyWlLk6GJQsqaUBKTNV-1" vertex="1">
          <mxGeometry x="842" y="10" width="120" height="60" as="geometry" />
        </mxCell>
        <mxCell id="SXd2BRhRPIDq4cuI7gyY-27" value="&lt;b&gt;nimlib/physdat.f90:physdat_set&lt;br&gt;&lt;br&gt;&lt;/b&gt;" style="whiteSpace=wrap;html=1;rounded=1;glass=0;strokeWidth=1;shadow=0;" parent="WIyWlLk6GJQsqaUBKTNV-1" vertex="1">
          <mxGeometry x="842" y="190" width="218" height="60" as="geometry" />
        </mxCell>
        <mxCell id="SXd2BRhRPIDq4cuI7gyY-32" value="&lt;b&gt;nimcore/input.F90:input_normalization&lt;/b&gt;&lt;br&gt;&lt;div style=&quot;text-align: left;&quot;&gt;&lt;span style=&quot;background-color: initial;&quot;&gt;module: physdat, input, pardata, global, io&lt;/span&gt;&lt;/div&gt;" style="whiteSpace=wrap;html=1;rounded=1;glass=0;strokeWidth=1;shadow=0;" parent="WIyWlLk6GJQsqaUBKTNV-1" vertex="1">
          <mxGeometry x="842" y="260" width="218" height="60" as="geometry" />
        </mxCell>
        <mxCell id="SXd2BRhRPIDq4cuI7gyY-36" value="&lt;b&gt;nimlib/local.F90:open_bin&lt;/b&gt;&lt;br&gt;module: local" style="whiteSpace=wrap;html=1;rounded=1;glass=0;strokeWidth=1;shadow=0;" parent="WIyWlLk6GJQsqaUBKTNV-1" vertex="1">
          <mxGeometry x="1230" y="-150" width="120" height="60" as="geometry" />
        </mxCell>
        <mxCell id="RLY1yqrqXE7ZBBlZP0H9-3" value="" style="edgeStyle=orthogonalEdgeStyle;rounded=0;orthogonalLoop=1;jettySize=auto;html=1;" edge="1" parent="WIyWlLk6GJQsqaUBKTNV-1" source="SXd2BRhRPIDq4cuI7gyY-37" target="RLY1yqrqXE7ZBBlZP0H9-2">
          <mxGeometry relative="1" as="geometry">
            <Array as="points">
              <mxPoint x="1510" y="26" />
              <mxPoint x="1510" y="-70" />
            </Array>
          </mxGeometry>
        </mxCell>
        <mxCell id="RLY1yqrqXE7ZBBlZP0H9-9" style="edgeStyle=orthogonalEdgeStyle;rounded=0;orthogonalLoop=1;jettySize=auto;html=1;exitX=1;exitY=0.5;exitDx=0;exitDy=0;entryX=0;entryY=0.5;entryDx=0;entryDy=0;" edge="1" parent="WIyWlLk6GJQsqaUBKTNV-1" source="SXd2BRhRPIDq4cuI7gyY-37" target="RLY1yqrqXE7ZBBlZP0H9-0">
          <mxGeometry relative="1" as="geometry">
            <Array as="points">
              <mxPoint x="1510" y="26" />
              <mxPoint x="1510" y="-160" />
            </Array>
          </mxGeometry>
        </mxCell>
        <mxCell id="SXd2BRhRPIDq4cuI7gyY-37" value="&lt;b&gt;nimcore/rblock_type_mod.F90:dump_read_rblock&lt;/b&gt;&lt;br&gt;module: io" style="whiteSpace=wrap;html=1;rounded=1;glass=0;strokeWidth=1;shadow=0;" parent="WIyWlLk6GJQsqaUBKTNV-1" vertex="1">
          <mxGeometry x="1230" y="-4" width="260" height="60" as="geometry" />
        </mxCell>
        <mxCell id="SXd2BRhRPIDq4cuI7gyY-38" value="&lt;b&gt;nimcore/seam_storage.F90:dump_read_seam&lt;/b&gt;&lt;br&gt;module: io" style="whiteSpace=wrap;html=1;rounded=1;glass=0;strokeWidth=1;shadow=0;" parent="WIyWlLk6GJQsqaUBKTNV-1" vertex="1">
          <mxGeometry x="1230" y="-70" width="260" height="60" as="geometry" />
        </mxCell>
        <mxCell id="SXd2BRhRPIDq4cuI7gyY-39" value="&lt;b&gt;nimlib/local.F90:close_bin&lt;/b&gt;&lt;br&gt;module: local" style="whiteSpace=wrap;html=1;rounded=1;glass=0;strokeWidth=1;shadow=0;" parent="WIyWlLk6GJQsqaUBKTNV-1" vertex="1">
          <mxGeometry x="1230" y="70" width="170" height="60" as="geometry" />
        </mxCell>
        <mxCell id="SXd2BRhRPIDq4cuI7gyY-40" value="&lt;b&gt;nimcore/parallel.F90:parallel_block_init&lt;/b&gt;&lt;br&gt;module: fields,mpi_nim,pardata, input, io" style="whiteSpace=wrap;html=1;rounded=1;glass=0;strokeWidth=1;shadow=0;" parent="WIyWlLk6GJQsqaUBKTNV-1" vertex="1">
          <mxGeometry x="1230" y="140" width="240" height="60" as="geometry" />
        </mxCell>
        <mxCell id="SXd2BRhRPIDq4cuI7gyY-41" value="&lt;b&gt;nimcore/parallel.F90:parallel_block_init2&lt;br&gt;&lt;/b&gt;module: fields,seam_storage_mod, mpi_nim,pardata&lt;b&gt;&lt;br&gt;&lt;/b&gt;" style="whiteSpace=wrap;html=1;rounded=1;glass=0;strokeWidth=1;shadow=0;" parent="WIyWlLk6GJQsqaUBKTNV-1" vertex="1">
          <mxGeometry x="1230" y="210" width="240" height="60" as="geometry" />
        </mxCell>
        <mxCell id="RLY1yqrqXE7ZBBlZP0H9-11" value="" style="edgeStyle=orthogonalEdgeStyle;rounded=0;orthogonalLoop=1;jettySize=auto;html=1;" edge="1" parent="WIyWlLk6GJQsqaUBKTNV-1" source="Dau_Bh_cS4Phi9B8vHtt-0" target="RLY1yqrqXE7ZBBlZP0H9-10">
          <mxGeometry relative="1" as="geometry">
            <Array as="points">
              <mxPoint x="970" y="400" />
              <mxPoint x="970" y="370" />
            </Array>
          </mxGeometry>
        </mxCell>
        <mxCell id="RLY1yqrqXE7ZBBlZP0H9-13" style="edgeStyle=orthogonalEdgeStyle;rounded=0;orthogonalLoop=1;jettySize=auto;html=1;exitX=1;exitY=0.5;exitDx=0;exitDy=0;entryX=0;entryY=0.5;entryDx=0;entryDy=0;" edge="1" parent="WIyWlLk6GJQsqaUBKTNV-1" source="Dau_Bh_cS4Phi9B8vHtt-0" target="RLY1yqrqXE7ZBBlZP0H9-12">
          <mxGeometry relative="1" as="geometry">
            <Array as="points">
              <mxPoint x="970" y="400" />
              <mxPoint x="970" y="436" />
            </Array>
          </mxGeometry>
        </mxCell>
        <mxCell id="Dau_Bh_cS4Phi9B8vHtt-0" value="&lt;b&gt;nimcore/surface_le.f90surface_set&lt;/b&gt;&lt;br&gt;&lt;div&gt;set the desired number of quadrature points, and determine basis values and gradients at those points&lt;/div&gt;" style="whiteSpace=wrap;html=1;rounded=1;glass=0;strokeWidth=1;shadow=0;align=left;" parent="WIyWlLk6GJQsqaUBKTNV-1" vertex="1">
          <mxGeometry x="750" y="370" width="200" height="60" as="geometry" />
        </mxCell>
        <mxCell id="RLY1yqrqXE7ZBBlZP0H9-19" style="edgeStyle=orthogonalEdgeStyle;rounded=0;orthogonalLoop=1;jettySize=auto;html=1;exitX=1;exitY=0.5;exitDx=0;exitDy=0;" edge="1" parent="WIyWlLk6GJQsqaUBKTNV-1" source="Dau_Bh_cS4Phi9B8vHtt-2">
          <mxGeometry relative="1" as="geometry">
            <mxPoint x="970" y="400" as="targetPoint" />
          </mxGeometry>
        </mxCell>
        <mxCell id="Dau_Bh_cS4Phi9B8vHtt-2" value="&lt;b&gt;nimcore/rblock.F90:rblock_set&lt;br&gt;&lt;/b&gt;" style="whiteSpace=wrap;html=1;rounded=1;glass=0;strokeWidth=1;shadow=0;align=left;" parent="WIyWlLk6GJQsqaUBKTNV-1" vertex="1">
          <mxGeometry x="750" y="440" width="190" height="30" as="geometry" />
        </mxCell>
        <mxCell id="RLY1yqrqXE7ZBBlZP0H9-27" style="edgeStyle=orthogonalEdgeStyle;rounded=0;orthogonalLoop=1;jettySize=auto;html=1;exitX=1;exitY=0.5;exitDx=0;exitDy=0;entryX=0;entryY=0.5;entryDx=0;entryDy=0;" edge="1" parent="WIyWlLk6GJQsqaUBKTNV-1" target="RLY1yqrqXE7ZBBlZP0H9-21">
          <mxGeometry relative="1" as="geometry">
            <mxPoint x="1220" y="496" as="sourcePoint" />
          </mxGeometry>
        </mxCell>
        <mxCell id="RLY1yqrqXE7ZBBlZP0H9-28" style="edgeStyle=orthogonalEdgeStyle;rounded=0;orthogonalLoop=1;jettySize=auto;html=1;exitX=1;exitY=0.5;exitDx=0;exitDy=0;entryX=0;entryY=0.5;entryDx=0;entryDy=0;" edge="1" parent="WIyWlLk6GJQsqaUBKTNV-1" target="RLY1yqrqXE7ZBBlZP0H9-22">
          <mxGeometry relative="1" as="geometry">
            <mxPoint x="1220" y="496" as="sourcePoint" />
            <Array as="points">
              <mxPoint x="1225" y="496" />
              <mxPoint x="1225" y="545" />
            </Array>
          </mxGeometry>
        </mxCell>
        <mxCell id="RLY1yqrqXE7ZBBlZP0H9-29" style="edgeStyle=orthogonalEdgeStyle;rounded=0;orthogonalLoop=1;jettySize=auto;html=1;exitX=1;exitY=0.5;exitDx=0;exitDy=0;entryX=0;entryY=0.5;entryDx=0;entryDy=0;" edge="1" parent="WIyWlLk6GJQsqaUBKTNV-1" target="RLY1yqrqXE7ZBBlZP0H9-23">
          <mxGeometry relative="1" as="geometry">
            <mxPoint x="1220" y="496" as="sourcePoint" />
            <Array as="points">
              <mxPoint x="1225" y="496" />
              <mxPoint x="1225" y="595" />
            </Array>
          </mxGeometry>
        </mxCell>
        <mxCell id="RLY1yqrqXE7ZBBlZP0H9-30" style="edgeStyle=orthogonalEdgeStyle;rounded=0;orthogonalLoop=1;jettySize=auto;html=1;exitX=1;exitY=0.5;exitDx=0;exitDy=0;entryX=0;entryY=0.5;entryDx=0;entryDy=0;" edge="1" parent="WIyWlLk6GJQsqaUBKTNV-1" source="Dau_Bh_cS4Phi9B8vHtt-4" target="RLY1yqrqXE7ZBBlZP0H9-24">
          <mxGeometry relative="1" as="geometry">
            <mxPoint x="1220" y="496" as="sourcePoint" />
            <Array as="points">
              <mxPoint x="970" y="496" />
              <mxPoint x="1225" y="496" />
              <mxPoint x="1225" y="645" />
            </Array>
          </mxGeometry>
        </mxCell>
        <mxCell id="Dau_Bh_cS4Phi9B8vHtt-4" value="&lt;b style=&quot;border-color: var(--border-color);&quot;&gt;nimcore/rblock.F90:&lt;/b&gt;&lt;b&gt;rblock_basis_set&lt;br&gt;&lt;/b&gt;module: math_tran, lagr_quad_mod" style="whiteSpace=wrap;html=1;rounded=1;glass=0;strokeWidth=1;shadow=0;align=left;" parent="WIyWlLk6GJQsqaUBKTNV-1" vertex="1">
          <mxGeometry x="750" y="476" width="220" height="30" as="geometry" />
        </mxCell>
        <mxCell id="Dau_Bh_cS4Phi9B8vHtt-6" value="&lt;b&gt;nimcore/edge.f90:edge_init&lt;br&gt;&lt;/b&gt;" style="whiteSpace=wrap;html=1;rounded=1;glass=0;strokeWidth=1;shadow=0;align=left;" parent="WIyWlLk6GJQsqaUBKTNV-1" vertex="1">
          <mxGeometry x="750" y="510" width="170" height="20" as="geometry" />
        </mxCell>
        <mxCell id="Dau_Bh_cS4Phi9B8vHtt-8" value="&lt;b style=&quot;border-color: var(--border-color);&quot;&gt;nimrod/boundary_init.F90:&lt;/b&gt;&lt;b&gt;boundary_init&lt;/b&gt;&lt;br&gt;module: local, fields, seam_storage_mod, pardata, mpi_nim_computation_pointers, regularity, input" style="whiteSpace=wrap;html=1;rounded=1;glass=0;strokeWidth=1;shadow=0;align=left;" parent="WIyWlLk6GJQsqaUBKTNV-1" vertex="1">
          <mxGeometry x="750" y="531" width="290" height="40" as="geometry" />
        </mxCell>
        <mxCell id="Dau_Bh_cS4Phi9B8vHtt-9" value="&lt;b style=&quot;border-color: var(--border-color);&quot;&gt;nimcore/edge.f90:&lt;/b&gt;&lt;b&gt;edge_segment_init&lt;/b&gt;&lt;br&gt;module: fields, pardata" style="whiteSpace=wrap;html=1;rounded=1;glass=0;strokeWidth=1;shadow=0;align=left;" parent="WIyWlLk6GJQsqaUBKTNV-1" vertex="1">
          <mxGeometry x="750" y="595" width="220" height="30" as="geometry" />
        </mxCell>
        <mxCell id="Dau_Bh_cS4Phi9B8vHtt-10" value="&lt;b&gt;nimrod/boundary_init.F90:lae_map_init&lt;/b&gt;&lt;br&gt;module: seam_storage_mod, fields, pardata, mpi_nim" style="whiteSpace=wrap;html=1;rounded=1;glass=0;strokeWidth=1;shadow=0;align=left;" parent="WIyWlLk6GJQsqaUBKTNV-1" vertex="1">
          <mxGeometry x="750" y="641" width="230" height="45" as="geometry" />
        </mxCell>
        <mxCell id="RLY1yqrqXE7ZBBlZP0H9-0" value="&lt;b&gt;nimlib/lagrange_quad.F90:dump_read_lagr_quad&lt;/b&gt;&lt;br&gt;module: io" style="whiteSpace=wrap;html=1;rounded=1;glass=0;strokeWidth=1;shadow=0;" vertex="1" parent="WIyWlLk6GJQsqaUBKTNV-1">
          <mxGeometry x="1540" y="-190" width="320" height="60" as="geometry" />
        </mxCell>
        <mxCell id="RLY1yqrqXE7ZBBlZP0H9-2" value="&lt;b style=&quot;border-color: var(--border-color);&quot;&gt;nimlib/lagrange_quad.F90:dump_read_lagr_quad_2D&lt;/b&gt;&lt;br&gt;module: io" style="whiteSpace=wrap;html=1;rounded=1;glass=0;strokeWidth=1;shadow=0;" vertex="1" parent="WIyWlLk6GJQsqaUBKTNV-1">
          <mxGeometry x="1540" y="-120" width="320" height="60" as="geometry" />
        </mxCell>
        <mxCell id="RLY1yqrqXE7ZBBlZP0H9-14" style="edgeStyle=orthogonalEdgeStyle;rounded=0;orthogonalLoop=1;jettySize=auto;html=1;exitX=0.5;exitY=1;exitDx=0;exitDy=0;entryX=0.5;entryY=0;entryDx=0;entryDy=0;" edge="1" parent="WIyWlLk6GJQsqaUBKTNV-1" source="RLY1yqrqXE7ZBBlZP0H9-10" target="RLY1yqrqXE7ZBBlZP0H9-12">
          <mxGeometry relative="1" as="geometry" />
        </mxCell>
        <mxCell id="RLY1yqrqXE7ZBBlZP0H9-10" value="&lt;b&gt;nimlib/polynomials.f90:lobleg&lt;br&gt;&lt;/b&gt;" style="whiteSpace=wrap;html=1;rounded=1;glass=0;strokeWidth=1;shadow=0;align=left;" vertex="1" parent="WIyWlLk6GJQsqaUBKTNV-1">
          <mxGeometry x="990" y="350" width="180" height="40" as="geometry" />
        </mxCell>
        <mxCell id="RLY1yqrqXE7ZBBlZP0H9-12" value="&lt;b&gt;nimlib/polynomials.f90:gauleg&lt;br&gt;&lt;/b&gt;" style="whiteSpace=wrap;html=1;rounded=1;glass=0;strokeWidth=1;shadow=0;align=left;" vertex="1" parent="WIyWlLk6GJQsqaUBKTNV-1">
          <mxGeometry x="990" y="416" width="180" height="40" as="geometry" />
        </mxCell>
        <mxCell id="RLY1yqrqXE7ZBBlZP0H9-31" style="edgeStyle=orthogonalEdgeStyle;rounded=0;orthogonalLoop=1;jettySize=auto;html=1;exitX=1;exitY=0.5;exitDx=0;exitDy=0;entryX=1;entryY=0.5;entryDx=0;entryDy=0;" edge="1" parent="WIyWlLk6GJQsqaUBKTNV-1" source="RLY1yqrqXE7ZBBlZP0H9-21" target="RLY1yqrqXE7ZBBlZP0H9-23">
          <mxGeometry relative="1" as="geometry" />
        </mxCell>
        <mxCell id="RLY1yqrqXE7ZBBlZP0H9-21" value="&lt;b&gt;nimlib/lagrange_quad.F90:lagr_quad_all_eval&lt;/b&gt;" style="whiteSpace=wrap;html=1;rounded=1;glass=0;strokeWidth=1;shadow=0;align=left;" vertex="1" parent="WIyWlLk6GJQsqaUBKTNV-1">
          <mxGeometry x="1245" y="476" width="265" height="40" as="geometry" />
        </mxCell>
        <mxCell id="RLY1yqrqXE7ZBBlZP0H9-22" value="&lt;b&gt;nimlib/math_tran.f90:math_grid&lt;/b&gt;" style="whiteSpace=wrap;html=1;rounded=1;glass=0;strokeWidth=1;shadow=0;align=left;" vertex="1" parent="WIyWlLk6GJQsqaUBKTNV-1">
          <mxGeometry x="1245" y="525" width="195" height="40" as="geometry" />
        </mxCell>
        <mxCell id="RLY1yqrqXE7ZBBlZP0H9-23" value="&lt;b&gt;nimlib/lagrange_quad.F90:lagr_quad_bases&lt;/b&gt;" style="whiteSpace=wrap;html=1;rounded=1;glass=0;strokeWidth=1;shadow=0;align=left;" vertex="1" parent="WIyWlLk6GJQsqaUBKTNV-1">
          <mxGeometry x="1245" y="575" width="255" height="40" as="geometry" />
        </mxCell>
        <mxCell id="RLY1yqrqXE7ZBBlZP0H9-24" value="&lt;b&gt;nimlib/modal_disc_quad.f90:modal_disc_bases&lt;/b&gt;" style="whiteSpace=wrap;html=1;rounded=1;glass=0;strokeWidth=1;shadow=0;align=left;" vertex="1" parent="WIyWlLk6GJQsqaUBKTNV-1">
          <mxGeometry x="1245" y="625" width="275" height="40" as="geometry" />
        </mxCell>
        <mxCell id="RLY1yqrqXE7ZBBlZP0H9-34" value="&lt;b&gt;nimcore/rblock.F90:rblock_qp_alloc&lt;br&gt;&lt;/b&gt;" style="whiteSpace=wrap;html=1;rounded=1;glass=0;strokeWidth=1;shadow=0;align=left;" vertex="1" parent="WIyWlLk6GJQsqaUBKTNV-1">
          <mxGeometry x="-220" y="269.5" width="305" height="60" as="geometry" />
        </mxCell>
        <mxCell id="RLY1yqrqXE7ZBBlZP0H9-50" style="edgeStyle=orthogonalEdgeStyle;rounded=0;orthogonalLoop=1;jettySize=auto;html=1;exitX=0;exitY=0.5;exitDx=0;exitDy=0;entryX=1;entryY=0.5;entryDx=0;entryDy=0;" edge="1" parent="WIyWlLk6GJQsqaUBKTNV-1" source="RLY1yqrqXE7ZBBlZP0H9-36" target="RLY1yqrqXE7ZBBlZP0H9-47">
          <mxGeometry relative="1" as="geometry" />
        </mxCell>
        <mxCell id="RLY1yqrqXE7ZBBlZP0H9-36" value="&lt;b&gt;nimcore/rblock.F90:rblock_qp_update&lt;br&gt;&lt;/b&gt;" style="whiteSpace=wrap;html=1;rounded=1;glass=0;strokeWidth=1;shadow=0;align=left;" vertex="1" parent="WIyWlLk6GJQsqaUBKTNV-1">
          <mxGeometry x="-220" y="346" width="305" height="60" as="geometry" />
        </mxCell>
        <mxCell id="RLY1yqrqXE7ZBBlZP0H9-53" value="" style="edgeStyle=orthogonalEdgeStyle;rounded=0;orthogonalLoop=1;jettySize=auto;html=1;" edge="1" parent="WIyWlLk6GJQsqaUBKTNV-1" source="RLY1yqrqXE7ZBBlZP0H9-37" target="RLY1yqrqXE7ZBBlZP0H9-52">
          <mxGeometry relative="1" as="geometry" />
        </mxCell>
        <mxCell id="RLY1yqrqXE7ZBBlZP0H9-37" value="&lt;b&gt;nimlib/lagrange_quad.F90:lagr_quad_alloc&lt;/b&gt;&lt;br&gt;&lt;div style=&quot;&quot;&gt;&lt;span style=&quot;background-color: initial;&quot;&gt;module: memlog&lt;/span&gt;&lt;br&gt;&lt;/div&gt;" style="whiteSpace=wrap;html=1;rounded=1;glass=0;strokeWidth=1;shadow=0;align=left;" vertex="1" parent="WIyWlLk6GJQsqaUBKTNV-1">
          <mxGeometry x="-220" y="416" width="305" height="60" as="geometry" />
        </mxCell>
        <mxCell id="RLY1yqrqXE7ZBBlZP0H9-38" value="&lt;b&gt;lagr_quad_eval&lt;/b&gt;&lt;br&gt;&lt;div style=&quot;&quot;&gt;&lt;span style=&quot;background-color: initial;&quot;&gt;module: io, local, fiels, global, input, computation_pointers, rblock, physdat, pardat&lt;/span&gt;&lt;br&gt;&lt;/div&gt;" style="whiteSpace=wrap;html=1;rounded=1;glass=0;strokeWidth=1;shadow=0;align=left;" vertex="1" parent="WIyWlLk6GJQsqaUBKTNV-1">
          <mxGeometry x="-220" y="486" width="305" height="60" as="geometry" />
        </mxCell>
        <mxCell id="RLY1yqrqXE7ZBBlZP0H9-39" value="&lt;b&gt;lagr_quad_basis_assign_loc&lt;/b&gt;&lt;br&gt;&lt;div style=&quot;&quot;&gt;&lt;span style=&quot;background-color: initial;&quot;&gt;module: io, local, fiels, global, input, computation_pointers, rblock, physdat, pardat&lt;/span&gt;&lt;br&gt;&lt;/div&gt;" style="whiteSpace=wrap;html=1;rounded=1;glass=0;strokeWidth=1;shadow=0;align=left;" vertex="1" parent="WIyWlLk6GJQsqaUBKTNV-1">
          <mxGeometry x="-219" y="556" width="305" height="60" as="geometry" />
        </mxCell>
        <mxCell id="RLY1yqrqXE7ZBBlZP0H9-40" value="&lt;b&gt;vector_type_alloc&lt;br&gt;&lt;/b&gt;&lt;span style=&quot;background-color: initial;&quot;&gt;module: io, local, fiels, global, input, computation_pointers, rblock, physdat, pardat&lt;/span&gt;&lt;b&gt;&lt;br&gt;&lt;/b&gt;" style="whiteSpace=wrap;html=1;rounded=1;glass=0;strokeWidth=1;shadow=0;align=left;" vertex="1" parent="WIyWlLk6GJQsqaUBKTNV-1">
          <mxGeometry x="-220" y="626" width="305" height="60" as="geometry" />
        </mxCell>
        <mxCell id="RLY1yqrqXE7ZBBlZP0H9-51" style="edgeStyle=orthogonalEdgeStyle;rounded=0;orthogonalLoop=1;jettySize=auto;html=1;exitX=0;exitY=0.5;exitDx=0;exitDy=0;entryX=1;entryY=0.5;entryDx=0;entryDy=0;" edge="1" parent="WIyWlLk6GJQsqaUBKTNV-1" source="RLY1yqrqXE7ZBBlZP0H9-47" target="RLY1yqrqXE7ZBBlZP0H9-48">
          <mxGeometry relative="1" as="geometry" />
        </mxCell>
        <mxCell id="RLY1yqrqXE7ZBBlZP0H9-47" value="&lt;b&gt;nimlib/lagrange_quad.F90:lagr_quad_all_eval&lt;/b&gt;" style="whiteSpace=wrap;html=1;rounded=1;glass=0;strokeWidth=1;shadow=0;align=left;" vertex="1" parent="WIyWlLk6GJQsqaUBKTNV-1">
          <mxGeometry x="-546" y="356" width="265" height="40" as="geometry" />
        </mxCell>
        <mxCell id="RLY1yqrqXE7ZBBlZP0H9-48" value="&lt;b&gt;nimlib/lagrange_quad.F90:lagr_quad_bases&lt;/b&gt;" style="whiteSpace=wrap;html=1;rounded=1;glass=0;strokeWidth=1;shadow=0;align=left;" vertex="1" parent="WIyWlLk6GJQsqaUBKTNV-1">
          <mxGeometry x="-850" y="356" width="255" height="40" as="geometry" />
        </mxCell>
        <mxCell id="RLY1yqrqXE7ZBBlZP0H9-56" value="" style="edgeStyle=orthogonalEdgeStyle;rounded=0;orthogonalLoop=1;jettySize=auto;html=1;" edge="1" parent="WIyWlLk6GJQsqaUBKTNV-1" source="RLY1yqrqXE7ZBBlZP0H9-52" target="RLY1yqrqXE7ZBBlZP0H9-55">
          <mxGeometry relative="1" as="geometry" />
        </mxCell>
        <mxCell id="RLY1yqrqXE7ZBBlZP0H9-52" value="&lt;b&gt;nimlib/polynomials.f90:poly_nodes&lt;/b&gt;&lt;br&gt;module: poly_mod" style="whiteSpace=wrap;html=1;rounded=1;glass=0;strokeWidth=1;shadow=0;align=left;" vertex="1" parent="WIyWlLk6GJQsqaUBKTNV-1">
          <mxGeometry x="-510" y="416" width="220" height="60" as="geometry" />
        </mxCell>
        <mxCell id="RLY1yqrqXE7ZBBlZP0H9-54" value="&lt;b&gt;nimlib/memlog.F90:memlogger&lt;/b&gt;" style="whiteSpace=wrap;html=1;rounded=1;glass=0;strokeWidth=1;shadow=0;align=left;" vertex="1" parent="WIyWlLk6GJQsqaUBKTNV-1">
          <mxGeometry x="-510" y="486" width="220" height="60" as="geometry" />
        </mxCell>
        <mxCell id="RLY1yqrqXE7ZBBlZP0H9-58" value="" style="edgeStyle=orthogonalEdgeStyle;rounded=0;orthogonalLoop=1;jettySize=auto;html=1;" edge="1" parent="WIyWlLk6GJQsqaUBKTNV-1" source="RLY1yqrqXE7ZBBlZP0H9-55" target="RLY1yqrqXE7ZBBlZP0H9-57">
          <mxGeometry relative="1" as="geometry" />
        </mxCell>
        <mxCell id="RLY1yqrqXE7ZBBlZP0H9-55" value="&lt;b&gt;nimlib/polynomials.f90:lobleg&lt;/b&gt;&lt;br&gt;module: local" style="whiteSpace=wrap;html=1;rounded=1;glass=0;strokeWidth=1;shadow=0;align=left;" vertex="1" parent="WIyWlLk6GJQsqaUBKTNV-1">
          <mxGeometry x="-780" y="416" width="220" height="60" as="geometry" />
        </mxCell>
        <mxCell id="RLY1yqrqXE7ZBBlZP0H9-57" value="&lt;b&gt;nimlib/polynomials.f90:gauleg&lt;/b&gt;&lt;br&gt;module: local" style="whiteSpace=wrap;html=1;rounded=1;glass=0;strokeWidth=1;shadow=0;align=left;" vertex="1" parent="WIyWlLk6GJQsqaUBKTNV-1">
          <mxGeometry x="-1047" y="416" width="220" height="60" as="geometry" />
        </mxCell>
      </root>
    </mxGraphModel>
  </diagram>
  <diagram id="AH4AczsIqFEM5tC_sfL6" name="第 2 页">
    <mxGraphModel dx="1843" dy="873" grid="1" gridSize="10" guides="1" tooltips="1" connect="1" arrows="1" fold="1" page="1" pageScale="1" pageWidth="827" pageHeight="1169" math="0" shadow="0">
      <root>
        <mxCell id="0" />
        <mxCell id="1" parent="0" />
        <mxCell id="ZJrnJYeYxX8DrfGdkskt-9" value="" style="edgeStyle=orthogonalEdgeStyle;rounded=0;orthogonalLoop=1;jettySize=auto;html=1;" edge="1" parent="1" source="ZJrnJYeYxX8DrfGdkskt-7" target="ZJrnJYeYxX8DrfGdkskt-8">
          <mxGeometry relative="1" as="geometry" />
        </mxCell>
        <mxCell id="ZJrnJYeYxX8DrfGdkskt-7" value="&lt;b&gt;HKM code&lt;/b&gt;" style="rounded=1;whiteSpace=wrap;html=1;" vertex="1" parent="1">
          <mxGeometry x="490" y="510" width="120" height="60" as="geometry" />
        </mxCell>
        <mxCell id="EpDFQS56rrq_Ds9jA1g--2" style="edgeStyle=orthogonalEdgeStyle;rounded=0;orthogonalLoop=1;jettySize=auto;html=1;exitX=0.5;exitY=1;exitDx=0;exitDy=0;entryX=0.5;entryY=0;entryDx=0;entryDy=0;" edge="1" parent="1" source="ZJrnJYeYxX8DrfGdkskt-8" target="EpDFQS56rrq_Ds9jA1g--1">
          <mxGeometry relative="1" as="geometry" />
        </mxCell>
        <mxCell id="ZJrnJYeYxX8DrfGdkskt-8" value="&lt;b&gt;init&lt;/b&gt;" style="rounded=1;whiteSpace=wrap;html=1;" vertex="1" parent="1">
          <mxGeometry x="490" y="650" width="120" height="60" as="geometry" />
        </mxCell>
        <mxCell id="5F2TPJU8I5YiPstU5qH7-12" value="" style="group" vertex="1" connectable="0" parent="1">
          <mxGeometry x="245" y="760" width="610" height="430" as="geometry" />
        </mxCell>
        <mxCell id="EpDFQS56rrq_Ds9jA1g--1" value="" style="rounded=1;whiteSpace=wrap;html=1;" vertex="1" parent="5F2TPJU8I5YiPstU5qH7-12">
          <mxGeometry width="610" height="430" as="geometry" />
        </mxCell>
        <mxCell id="5F2TPJU8I5YiPstU5qH7-9" style="edgeStyle=orthogonalEdgeStyle;rounded=0;orthogonalLoop=1;jettySize=auto;html=1;exitX=0.5;exitY=0;exitDx=0;exitDy=0;entryX=0.5;entryY=0;entryDx=0;entryDy=0;" edge="1" parent="5F2TPJU8I5YiPstU5qH7-12" source="EpDFQS56rrq_Ds9jA1g--1" target="EpDFQS56rrq_Ds9jA1g--4">
          <mxGeometry relative="1" as="geometry" />
        </mxCell>
        <mxCell id="EpDFQS56rrq_Ds9jA1g--3" value="&lt;h2&gt;Adv_time&lt;/h2&gt;" style="text;strokeColor=none;align=center;fillColor=none;html=1;verticalAlign=middle;whiteSpace=wrap;rounded=0;" vertex="1" parent="5F2TPJU8I5YiPstU5qH7-12">
          <mxGeometry x="35" y="20" width="110" height="30" as="geometry" />
        </mxCell>
        <mxCell id="EpDFQS56rrq_Ds9jA1g--4" value="&lt;b&gt;divb_check&lt;/b&gt;" style="rounded=1;whiteSpace=wrap;html=1;" vertex="1" parent="5F2TPJU8I5YiPstU5qH7-12">
          <mxGeometry x="244" y="40" width="120" height="60" as="geometry" />
        </mxCell>
        <mxCell id="5F2TPJU8I5YiPstU5qH7-8" style="edgeStyle=orthogonalEdgeStyle;rounded=0;orthogonalLoop=1;jettySize=auto;html=1;exitX=0.5;exitY=0;exitDx=0;exitDy=0;entryX=0.5;entryY=0;entryDx=0;entryDy=0;" edge="1" parent="5F2TPJU8I5YiPstU5qH7-12" source="EpDFQS56rrq_Ds9jA1g--1" target="EpDFQS56rrq_Ds9jA1g--4">
          <mxGeometry relative="1" as="geometry" />
        </mxCell>
        <mxCell id="cpSEoigYiclNBkVWbl9g-1" value="nim_output" style="rounded=1;whiteSpace=wrap;html=1;" vertex="1" parent="5F2TPJU8I5YiPstU5qH7-12">
          <mxGeometry x="435" y="140" width="120" height="60" as="geometry" />
        </mxCell>
        <mxCell id="5F2TPJU8I5YiPstU5qH7-1" style="edgeStyle=orthogonalEdgeStyle;rounded=0;orthogonalLoop=1;jettySize=auto;html=1;exitX=1;exitY=0.5;exitDx=0;exitDy=0;entryX=0.5;entryY=0;entryDx=0;entryDy=0;" edge="1" parent="5F2TPJU8I5YiPstU5qH7-12" source="EpDFQS56rrq_Ds9jA1g--4" target="cpSEoigYiclNBkVWbl9g-1">
          <mxGeometry relative="1" as="geometry" />
        </mxCell>
        <mxCell id="5F2TPJU8I5YiPstU5qH7-7" style="edgeStyle=orthogonalEdgeStyle;rounded=0;orthogonalLoop=1;jettySize=auto;html=1;exitX=0.5;exitY=0;exitDx=0;exitDy=0;entryX=0;entryY=0.5;entryDx=0;entryDy=0;" edge="1" parent="5F2TPJU8I5YiPstU5qH7-12" source="cpSEoigYiclNBkVWbl9g-2" target="EpDFQS56rrq_Ds9jA1g--4">
          <mxGeometry relative="1" as="geometry" />
        </mxCell>
        <mxCell id="cpSEoigYiclNBkVWbl9g-2" value="vcom_store&lt;br&gt;vn_store" style="rounded=1;whiteSpace=wrap;html=1;" vertex="1" parent="5F2TPJU8I5YiPstU5qH7-12">
          <mxGeometry x="85" y="140" width="120" height="60" as="geometry" />
        </mxCell>
        <mxCell id="cpSEoigYiclNBkVWbl9g-3" value="advance_lin" style="rounded=1;whiteSpace=wrap;html=1;" vertex="1" parent="5F2TPJU8I5YiPstU5qH7-12">
          <mxGeometry x="265" y="320" width="120" height="60" as="geometry" />
        </mxCell>
        <mxCell id="5F2TPJU8I5YiPstU5qH7-6" style="edgeStyle=orthogonalEdgeStyle;rounded=0;orthogonalLoop=1;jettySize=auto;html=1;exitX=0.5;exitY=0;exitDx=0;exitDy=0;entryX=0.5;entryY=1;entryDx=0;entryDy=0;" edge="1" parent="5F2TPJU8I5YiPstU5qH7-12" source="cpSEoigYiclNBkVWbl9g-4" target="cpSEoigYiclNBkVWbl9g-2">
          <mxGeometry relative="1" as="geometry" />
        </mxCell>
        <mxCell id="cpSEoigYiclNBkVWbl9g-4" value="&lt;b style=&quot;border-color: var(--border-color); text-align: left;&quot;&gt;soln_save&lt;/b&gt;" style="rounded=1;whiteSpace=wrap;html=1;" vertex="1" parent="5F2TPJU8I5YiPstU5qH7-12">
          <mxGeometry x="85" y="270" width="120" height="60" as="geometry" />
        </mxCell>
        <mxCell id="5F2TPJU8I5YiPstU5qH7-5" style="edgeStyle=orthogonalEdgeStyle;rounded=0;orthogonalLoop=1;jettySize=auto;html=1;exitX=0;exitY=0.5;exitDx=0;exitDy=0;entryX=0.5;entryY=1;entryDx=0;entryDy=0;" edge="1" parent="5F2TPJU8I5YiPstU5qH7-12" source="cpSEoigYiclNBkVWbl9g-3" target="cpSEoigYiclNBkVWbl9g-4">
          <mxGeometry relative="1" as="geometry" />
        </mxCell>
        <mxCell id="5F2TPJU8I5YiPstU5qH7-4" style="edgeStyle=orthogonalEdgeStyle;rounded=0;orthogonalLoop=1;jettySize=auto;html=1;exitX=0.5;exitY=1;exitDx=0;exitDy=0;entryX=1;entryY=0.5;entryDx=0;entryDy=0;" edge="1" parent="5F2TPJU8I5YiPstU5qH7-12" source="cpSEoigYiclNBkVWbl9g-5" target="cpSEoigYiclNBkVWbl9g-3">
          <mxGeometry relative="1" as="geometry" />
        </mxCell>
        <mxCell id="cpSEoigYiclNBkVWbl9g-5" value="advance_particles" style="rounded=1;whiteSpace=wrap;html=1;" vertex="1" parent="5F2TPJU8I5YiPstU5qH7-12">
          <mxGeometry x="435" y="270" width="120" height="60" as="geometry" />
        </mxCell>
        <mxCell id="5F2TPJU8I5YiPstU5qH7-2" style="edgeStyle=orthogonalEdgeStyle;rounded=0;orthogonalLoop=1;jettySize=auto;html=1;exitX=0.5;exitY=1;exitDx=0;exitDy=0;entryX=0.5;entryY=0;entryDx=0;entryDy=0;" edge="1" parent="5F2TPJU8I5YiPstU5qH7-12" source="cpSEoigYiclNBkVWbl9g-1" target="cpSEoigYiclNBkVWbl9g-5">
          <mxGeometry relative="1" as="geometry" />
        </mxCell>
        <mxCell id="5F2TPJU8I5YiPstU5qH7-13" value="" style="group" vertex="1" connectable="0" parent="1">
          <mxGeometry x="267" y="1270" width="610" height="430" as="geometry" />
        </mxCell>
        <mxCell id="5F2TPJU8I5YiPstU5qH7-14" value="" style="rounded=1;whiteSpace=wrap;html=1;" vertex="1" parent="5F2TPJU8I5YiPstU5qH7-13">
          <mxGeometry width="610" height="430" as="geometry" />
        </mxCell>
        <mxCell id="5F2TPJU8I5YiPstU5qH7-16" value="&lt;h2&gt;advance_lin&lt;/h2&gt;" style="text;strokeColor=none;align=center;fillColor=none;html=1;verticalAlign=middle;whiteSpace=wrap;rounded=0;" vertex="1" parent="5F2TPJU8I5YiPstU5qH7-13">
          <mxGeometry x="35" y="20" width="110" height="30" as="geometry" />
        </mxCell>
        <mxCell id="5F2TPJU8I5YiPstU5qH7-17" value="&lt;b&gt;new_dt&lt;/b&gt;" style="rounded=1;whiteSpace=wrap;html=1;" vertex="1" parent="5F2TPJU8I5YiPstU5qH7-13">
          <mxGeometry x="244" y="40" width="120" height="60" as="geometry" />
        </mxCell>
        <mxCell id="5F2TPJU8I5YiPstU5qH7-19" value="p_from_nt&lt;br&gt;rblock_qp_update" style="rounded=1;whiteSpace=wrap;html=1;" vertex="1" parent="5F2TPJU8I5YiPstU5qH7-13">
          <mxGeometry x="435" y="140" width="120" height="60" as="geometry" />
        </mxCell>
        <mxCell id="5F2TPJU8I5YiPstU5qH7-20" style="edgeStyle=orthogonalEdgeStyle;rounded=0;orthogonalLoop=1;jettySize=auto;html=1;exitX=1;exitY=0.5;exitDx=0;exitDy=0;entryX=0.5;entryY=0;entryDx=0;entryDy=0;" edge="1" parent="5F2TPJU8I5YiPstU5qH7-13" source="5F2TPJU8I5YiPstU5qH7-17" target="5F2TPJU8I5YiPstU5qH7-19">
          <mxGeometry relative="1" as="geometry" />
        </mxCell>
        <mxCell id="5F2TPJU8I5YiPstU5qH7-21" style="edgeStyle=orthogonalEdgeStyle;rounded=0;orthogonalLoop=1;jettySize=auto;html=1;exitX=0.5;exitY=0;exitDx=0;exitDy=0;entryX=0;entryY=0.5;entryDx=0;entryDy=0;" edge="1" parent="5F2TPJU8I5YiPstU5qH7-13" source="5F2TPJU8I5YiPstU5qH7-22" target="5F2TPJU8I5YiPstU5qH7-17">
          <mxGeometry relative="1" as="geometry" />
        </mxCell>
        <mxCell id="5F2TPJU8I5YiPstU5qH7-22" value="adv_b_nsym" style="rounded=1;whiteSpace=wrap;html=1;" vertex="1" parent="5F2TPJU8I5YiPstU5qH7-13">
          <mxGeometry x="85" y="140" width="120" height="60" as="geometry" />
        </mxCell>
        <mxCell id="5F2TPJU8I5YiPstU5qH7-23" value="advance_nd_nsym&lt;br&gt;rho_from_mn" style="rounded=1;whiteSpace=wrap;html=1;" vertex="1" parent="5F2TPJU8I5YiPstU5qH7-13">
          <mxGeometry x="265" y="320" width="120" height="60" as="geometry" />
        </mxCell>
        <mxCell id="5F2TPJU8I5YiPstU5qH7-24" style="edgeStyle=orthogonalEdgeStyle;rounded=0;orthogonalLoop=1;jettySize=auto;html=1;exitX=0.5;exitY=0;exitDx=0;exitDy=0;entryX=0.5;entryY=1;entryDx=0;entryDy=0;" edge="1" parent="5F2TPJU8I5YiPstU5qH7-13" source="5F2TPJU8I5YiPstU5qH7-25" target="5F2TPJU8I5YiPstU5qH7-22">
          <mxGeometry relative="1" as="geometry" />
        </mxCell>
        <mxCell id="5F2TPJU8I5YiPstU5qH7-25" value="&lt;b style=&quot;border-color: var(--border-color); text-align: left;&quot;&gt;adv_t_nsym&lt;br&gt;vector_mult&lt;br&gt;&lt;/b&gt;" style="rounded=1;whiteSpace=wrap;html=1;" vertex="1" parent="5F2TPJU8I5YiPstU5qH7-13">
          <mxGeometry x="85" y="270" width="120" height="60" as="geometry" />
        </mxCell>
        <mxCell id="5F2TPJU8I5YiPstU5qH7-26" style="edgeStyle=orthogonalEdgeStyle;rounded=0;orthogonalLoop=1;jettySize=auto;html=1;exitX=0;exitY=0.5;exitDx=0;exitDy=0;entryX=0.5;entryY=1;entryDx=0;entryDy=0;" edge="1" parent="5F2TPJU8I5YiPstU5qH7-13" source="5F2TPJU8I5YiPstU5qH7-23" target="5F2TPJU8I5YiPstU5qH7-25">
          <mxGeometry relative="1" as="geometry" />
        </mxCell>
        <mxCell id="5F2TPJU8I5YiPstU5qH7-27" style="edgeStyle=orthogonalEdgeStyle;rounded=0;orthogonalLoop=1;jettySize=auto;html=1;exitX=0.5;exitY=1;exitDx=0;exitDy=0;entryX=1;entryY=0.5;entryDx=0;entryDy=0;" edge="1" parent="5F2TPJU8I5YiPstU5qH7-13" source="5F2TPJU8I5YiPstU5qH7-28" target="5F2TPJU8I5YiPstU5qH7-23">
          <mxGeometry relative="1" as="geometry" />
        </mxCell>
        <mxCell id="5F2TPJU8I5YiPstU5qH7-28" value="advance_v_aniso" style="rounded=1;whiteSpace=wrap;html=1;" vertex="1" parent="5F2TPJU8I5YiPstU5qH7-13">
          <mxGeometry x="435" y="270" width="120" height="60" as="geometry" />
        </mxCell>
        <mxCell id="5F2TPJU8I5YiPstU5qH7-29" style="edgeStyle=orthogonalEdgeStyle;rounded=0;orthogonalLoop=1;jettySize=auto;html=1;exitX=0.5;exitY=1;exitDx=0;exitDy=0;entryX=0.5;entryY=0;entryDx=0;entryDy=0;" edge="1" parent="5F2TPJU8I5YiPstU5qH7-13" source="5F2TPJU8I5YiPstU5qH7-19" target="5F2TPJU8I5YiPstU5qH7-28">
          <mxGeometry relative="1" as="geometry" />
        </mxCell>
        <mxCell id="5F2TPJU8I5YiPstU5qH7-35" style="edgeStyle=orthogonalEdgeStyle;rounded=0;orthogonalLoop=1;jettySize=auto;html=1;exitX=0.5;exitY=1;exitDx=0;exitDy=0;entryX=0.5;entryY=0;entryDx=0;entryDy=0;" edge="1" parent="1" source="cpSEoigYiclNBkVWbl9g-3" target="5F2TPJU8I5YiPstU5qH7-17">
          <mxGeometry relative="1" as="geometry" />
        </mxCell>
      </root>
    </mxGraphModel>
  </diagram>
</mxfile>
